<?xml version="1.0" encoding="UTF-8"?>
<svg xmlns="http://www.w3.org/2000/svg" xmlns:xlink="http://www.w3.org/1999/xlink" width="375pt" height="374.999991pt" viewBox="0 0 375 374.999991" version="1.2">
<defs>
<clipPath id="clip1">
  <path d="M 46 245 L 204 245 L 204 372.117188 L 46 372.117188 Z M 46 245 "/>
</clipPath>
<clipPath id="clip2">
  <path d="M 25 3.117188 L 350.804688 3.117188 L 350.804688 329 L 25 329 Z M 25 3.117188 "/>
</clipPath>
<clipPath id="clip3">
  <path d="M 25 3.117188 L 189 3.117188 L 189 329 L 25 329 Z M 25 3.117188 "/>
</clipPath>
</defs>
<g id="surface1">
<g clip-path="url(#clip1)" clip-rule="nonzero">
<path style=" stroke:none;fill-rule:nonzero;fill:rgb(29.019165%,53.729248%,86.268616%);fill-opacity:1;" d="M 46.214844 245.964844 L 121.398438 372.363281 L 203.371094 263.761719 Z M 46.214844 245.964844 "/>
</g>
<g clip-path="url(#clip2)" clip-rule="nonzero">
<path style=" stroke:none;fill-rule:nonzero;fill:rgb(36.468506%,61.178589%,92.549133%);fill-opacity:1;" d="M 351.121094 165.925781 C 351.121094 168.589844 351.054688 171.253906 350.925781 173.914062 C 350.792969 176.574219 350.597656 179.230469 350.335938 181.882812 C 350.074219 184.535156 349.746094 187.179688 349.355469 189.8125 C 348.964844 192.449219 348.507812 195.074219 347.988281 197.6875 C 347.46875 200.300781 346.886719 202.898438 346.238281 205.484375 C 345.589844 208.070312 344.878906 210.636719 344.105469 213.1875 C 343.328125 215.734375 342.492188 218.265625 341.59375 220.773438 C 340.695312 223.28125 339.738281 225.765625 338.714844 228.230469 C 337.695312 230.691406 336.617188 233.125 335.476562 235.535156 C 334.335938 237.941406 333.136719 240.324219 331.878906 242.671875 C 330.621094 245.023438 329.308594 247.339844 327.9375 249.625 C 326.566406 251.910156 325.140625 254.160156 323.65625 256.375 C 322.175781 258.589844 320.640625 260.769531 319.050781 262.910156 C 317.464844 265.050781 315.824219 267.148438 314.132812 269.210938 C 312.441406 271.269531 310.699219 273.285156 308.90625 275.261719 C 307.117188 277.234375 305.277344 279.164062 303.394531 281.046875 C 301.507812 282.929688 299.574219 284.769531 297.601562 286.558594 C 295.625 288.347656 293.605469 290.085938 291.542969 291.777344 C 289.480469 293.46875 287.378906 295.105469 285.238281 296.691406 C 283.097656 298.28125 280.917969 299.8125 278.699219 301.292969 C 276.480469 302.773438 274.230469 304.199219 271.941406 305.570312 C 269.65625 306.9375 267.335938 308.253906 264.984375 309.507812 C 262.632812 310.765625 260.25 311.960938 257.839844 313.101562 C 255.429688 314.242188 252.992188 315.320312 250.527344 316.339844 C 248.0625 317.359375 245.574219 318.316406 243.066406 319.214844 C 240.554688 320.113281 238.023438 320.949219 235.46875 321.722656 C 232.917969 322.496094 230.347656 323.207031 227.761719 323.851562 C 225.175781 324.5 222.574219 325.085938 219.957031 325.605469 C 217.34375 326.125 214.714844 326.578125 212.078125 326.96875 C 209.441406 327.359375 206.792969 327.6875 204.140625 327.949219 C 201.484375 328.210938 198.828125 328.40625 196.164062 328.535156 C 193.5 328.667969 190.835938 328.730469 188.167969 328.730469 C 185.5 328.730469 182.835938 328.667969 180.171875 328.535156 C 177.507812 328.40625 174.851562 328.210938 172.195312 327.949219 C 169.542969 327.6875 166.894531 327.359375 164.257812 326.96875 C 161.621094 326.578125 158.992188 326.125 156.378906 325.605469 C 153.761719 325.085938 151.160156 324.5 148.574219 323.851562 C 145.988281 323.207031 143.417969 322.496094 140.867188 321.722656 C 138.3125 320.949219 135.78125 320.113281 133.269531 319.214844 C 130.761719 318.316406 128.273438 317.359375 125.808594 316.339844 C 123.34375 315.320312 120.90625 314.242188 118.496094 313.101562 C 116.085938 311.960938 113.703125 310.765625 111.351562 309.507812 C 109 308.253906 106.679688 306.9375 104.394531 305.570312 C 102.105469 304.199219 99.855469 302.773438 97.636719 301.292969 C 95.417969 299.8125 93.238281 298.28125 91.097656 296.691406 C 88.957031 295.105469 86.851562 293.46875 84.792969 291.777344 C 82.730469 290.085938 80.710938 288.347656 78.734375 286.558594 C 76.757812 284.769531 74.828125 282.929688 72.941406 281.046875 C 71.058594 279.164062 69.21875 277.234375 67.429688 275.261719 C 65.636719 273.285156 63.894531 271.269531 62.203125 269.210938 C 60.511719 267.148438 58.871094 265.050781 57.285156 262.910156 C 55.695312 260.769531 54.160156 258.589844 52.679688 256.375 C 51.195312 254.160156 49.769531 251.910156 48.398438 249.625 C 47.027344 247.339844 45.714844 245.023438 44.457031 242.671875 C 43.199219 240.324219 42 237.941406 40.859375 235.535156 C 39.71875 233.125 38.640625 230.691406 37.621094 228.230469 C 36.597656 225.765625 35.640625 223.28125 34.742188 220.773438 C 33.84375 218.265625 33.007812 215.734375 32.230469 213.1875 C 31.457031 210.636719 30.746094 208.070312 30.097656 205.484375 C 29.449219 202.898438 28.867188 200.300781 28.347656 197.6875 C 27.828125 195.074219 27.371094 192.449219 26.980469 189.8125 C 26.585938 187.179688 26.261719 184.535156 26 181.882812 C 25.738281 179.230469 25.542969 176.574219 25.410156 173.914062 C 25.28125 171.253906 25.214844 168.589844 25.214844 165.925781 C 25.214844 163.261719 25.28125 160.597656 25.410156 157.9375 C 25.542969 155.277344 25.738281 152.621094 26 149.96875 C 26.261719 147.316406 26.585938 144.671875 26.980469 142.035156 C 27.371094 139.402344 27.828125 136.777344 28.347656 134.164062 C 28.867188 131.550781 29.449219 128.953125 30.097656 126.367188 C 30.746094 123.78125 31.457031 121.214844 32.230469 118.664062 C 33.007812 116.117188 33.84375 113.585938 34.742188 111.078125 C 35.640625 108.570312 36.597656 106.082031 37.621094 103.621094 C 38.640625 101.160156 39.71875 98.726562 40.859375 96.316406 C 42 93.90625 43.199219 91.527344 44.457031 89.179688 C 45.714844 86.828125 47.027344 84.511719 48.398438 82.226562 C 49.769531 79.941406 51.195312 77.691406 52.679688 75.476562 C 54.160156 73.257812 55.695312 71.082031 57.285156 68.941406 C 58.871094 66.800781 60.511719 64.703125 62.203125 62.640625 C 63.894531 60.582031 65.636719 58.566406 67.429688 56.589844 C 69.21875 54.617188 71.058594 52.6875 72.941406 50.804688 C 74.828125 48.917969 76.757812 47.082031 78.734375 45.292969 C 80.710938 43.503906 82.730469 41.765625 84.792969 40.074219 C 86.851562 38.382812 88.957031 36.746094 91.097656 35.15625 C 93.238281 33.570312 95.417969 32.035156 97.636719 30.558594 C 99.855469 29.078125 102.105469 27.652344 104.394531 26.28125 C 106.679688 24.910156 109 23.597656 111.351562 22.34375 C 113.703125 21.085938 116.085938 19.890625 118.496094 18.75 C 120.90625 17.609375 123.34375 16.53125 125.808594 15.511719 C 128.273438 14.492188 130.761719 13.535156 133.269531 12.636719 C 135.78125 11.738281 138.3125 10.902344 140.867188 10.128906 C 143.417969 9.355469 145.988281 8.644531 148.574219 7.996094 C 151.160156 7.351562 153.761719 6.765625 156.378906 6.246094 C 158.992188 5.726562 161.621094 5.273438 164.257812 4.882812 C 166.894531 4.488281 169.542969 4.164062 172.195312 3.902344 C 174.851562 3.640625 177.507812 3.445312 180.171875 3.316406 C 182.835938 3.183594 185.5 3.117188 188.167969 3.117188 C 190.835938 3.117188 193.5 3.183594 196.164062 3.316406 C 198.828125 3.445312 201.484375 3.640625 204.140625 3.902344 C 206.792969 4.164062 209.441406 4.488281 212.078125 4.882812 C 214.714844 5.273438 217.34375 5.726562 219.957031 6.246094 C 222.574219 6.765625 225.175781 7.351562 227.761719 7.996094 C 230.347656 8.644531 232.917969 9.355469 235.46875 10.128906 C 238.023438 10.902344 240.554688 11.738281 243.066406 12.636719 C 245.574219 13.535156 248.0625 14.492188 250.527344 15.511719 C 252.992188 16.53125 255.429688 17.609375 257.839844 18.75 C 260.25 19.890625 262.632812 21.085938 264.984375 22.34375 C 267.335938 23.597656 269.65625 24.910156 271.941406 26.28125 C 274.230469 27.652344 276.480469 29.078125 278.699219 30.558594 C 280.917969 32.035156 283.097656 33.570312 285.238281 35.15625 C 287.378906 36.746094 289.480469 38.382812 291.542969 40.074219 C 293.605469 41.765625 295.625 43.503906 297.601562 45.292969 C 299.574219 47.082031 301.507812 48.917969 303.394531 50.804688 C 305.277344 52.6875 307.117188 54.617188 308.90625 56.589844 C 310.699219 58.566406 312.441406 60.582031 314.132812 62.640625 C 315.824219 64.703125 317.464844 66.800781 319.050781 68.941406 C 320.640625 71.082031 322.175781 73.257812 323.65625 75.476562 C 325.140625 77.691406 326.566406 79.941406 327.9375 82.226562 C 329.308594 84.511719 330.621094 86.828125 331.878906 89.179688 C 333.136719 91.527344 334.335938 93.90625 335.476562 96.316406 C 336.617188 98.726562 337.695312 101.160156 338.714844 103.621094 C 339.738281 106.082031 340.695312 108.570312 341.59375 111.078125 C 342.492188 113.585938 343.328125 116.117188 344.105469 118.664062 C 344.878906 121.214844 345.589844 123.78125 346.238281 126.367188 C 346.886719 128.953125 347.46875 131.550781 347.988281 134.164062 C 348.507812 136.777344 348.964844 139.402344 349.355469 142.035156 C 349.746094 144.671875 350.074219 147.316406 350.335938 149.96875 C 350.597656 152.621094 350.792969 155.277344 350.925781 157.9375 C 351.054688 160.597656 351.121094 163.261719 351.121094 165.925781 Z M 351.121094 165.925781 "/>
</g>
<g clip-path="url(#clip3)" clip-rule="nonzero">
<path style=" stroke:none;fill-rule:nonzero;fill:rgb(100%,100%,100%);fill-opacity:0.149;" d="M 188.167969 3.117188 C 98.167969 3.117188 25.210938 76.015625 25.210938 165.925781 C 25.210938 255.84375 98.167969 328.730469 188.167969 328.730469 Z M 188.167969 3.117188 "/>
</g>
<path style=" stroke:none;fill-rule:nonzero;fill:rgb(29.019165%,53.729248%,86.268616%);fill-opacity:1;" d="M 306.960938 165.933594 C 306.960938 167.875 306.914062 169.816406 306.820312 171.753906 C 306.722656 173.695312 306.582031 175.632812 306.390625 177.566406 C 306.199219 179.5 305.960938 181.425781 305.675781 183.347656 C 305.390625 185.269531 305.058594 187.179688 304.679688 189.085938 C 304.300781 190.992188 303.875 192.886719 303.402344 194.769531 C 302.929688 196.65625 302.410156 198.527344 301.847656 200.386719 C 301.28125 202.242188 300.671875 204.085938 300.019531 205.917969 C 299.363281 207.746094 298.664062 209.558594 297.917969 211.351562 C 297.175781 213.144531 296.386719 214.921875 295.554688 216.675781 C 294.726562 218.433594 293.851562 220.167969 292.933594 221.878906 C 292.019531 223.59375 291.058594 225.285156 290.0625 226.949219 C 289.0625 228.617188 288.023438 230.257812 286.941406 231.871094 C 285.863281 233.484375 284.742188 235.074219 283.585938 236.632812 C 282.425781 238.195312 281.230469 239.726562 279.996094 241.226562 C 278.761719 242.726562 277.496094 244.199219 276.1875 245.636719 C 274.882812 247.078125 273.542969 248.484375 272.167969 249.855469 C 270.792969 251.230469 269.386719 252.570312 267.945312 253.875 C 266.503906 255.179688 265.03125 256.445312 263.53125 257.679688 C 262.027344 258.910156 260.496094 260.105469 258.933594 261.261719 C 257.371094 262.417969 255.78125 263.539062 254.167969 264.617188 C 252.550781 265.695312 250.90625 266.734375 249.242188 267.734375 C 247.574219 268.730469 245.882812 269.691406 244.167969 270.605469 C 242.453125 271.519531 240.714844 272.394531 238.957031 273.222656 C 237.203125 274.054688 235.425781 274.84375 233.628906 275.585938 C 231.832031 276.328125 230.019531 277.027344 228.1875 277.683594 C 226.359375 278.335938 224.511719 278.945312 222.652344 279.507812 C 220.792969 280.074219 218.917969 280.589844 217.03125 281.0625 C 215.148438 281.535156 213.25 281.960938 211.34375 282.339844 C 209.4375 282.71875 207.523438 283.050781 205.597656 283.335938 C 203.675781 283.621094 201.746094 283.859375 199.8125 284.046875 C 197.875 284.238281 195.9375 284.382812 193.996094 284.476562 C 192.054688 284.570312 190.113281 284.621094 188.167969 284.621094 C 186.222656 284.621094 184.28125 284.570312 182.339844 284.476562 C 180.398438 284.382812 178.457031 284.238281 176.523438 284.046875 C 174.589844 283.859375 172.660156 283.621094 170.738281 283.335938 C 168.8125 283.050781 166.898438 282.71875 164.992188 282.339844 C 163.085938 281.960938 161.1875 281.535156 159.304688 281.0625 C 157.417969 280.589844 155.542969 280.074219 153.683594 279.507812 C 151.824219 278.945312 149.976562 278.335938 148.148438 277.683594 C 146.316406 277.027344 144.503906 276.328125 142.707031 275.585938 C 140.910156 274.84375 139.132812 274.054688 137.375 273.222656 C 135.621094 272.394531 133.882812 271.519531 132.167969 270.605469 C 130.453125 269.691406 128.761719 268.730469 127.09375 267.734375 C 125.429688 266.734375 123.785156 265.695312 122.167969 264.617188 C 120.554688 263.539062 118.964844 262.417969 117.402344 261.261719 C 115.839844 260.105469 114.308594 258.910156 112.804688 257.679688 C 111.304688 256.445312 109.832031 255.179688 108.390625 253.875 C 106.949219 252.570312 105.542969 251.230469 104.167969 249.855469 C 102.792969 248.484375 101.453125 247.078125 100.148438 245.636719 C 98.839844 244.199219 97.570312 242.726562 96.339844 241.226562 C 95.105469 239.726562 93.910156 238.195312 92.75 236.632812 C 91.59375 235.074219 90.472656 233.484375 89.394531 231.871094 C 88.3125 230.257812 87.273438 228.617188 86.273438 226.949219 C 85.273438 225.285156 84.316406 223.59375 83.402344 221.878906 C 82.484375 220.167969 81.609375 218.433594 80.777344 216.675781 C 79.949219 214.921875 79.160156 213.144531 78.417969 211.351562 C 77.671875 209.558594 76.972656 207.746094 76.316406 205.917969 C 75.664062 204.085938 75.054688 202.242188 74.488281 200.386719 C 73.925781 198.527344 73.40625 196.65625 72.933594 194.769531 C 72.460938 192.886719 72.035156 190.992188 71.65625 189.085938 C 71.277344 187.179688 70.945312 185.269531 70.660156 183.347656 C 70.375 181.425781 70.136719 179.5 69.945312 177.566406 C 69.753906 175.632812 69.613281 173.695312 69.515625 171.753906 C 69.421875 169.816406 69.375 167.875 69.375 165.933594 C 69.375 163.988281 69.421875 162.046875 69.515625 160.109375 C 69.613281 158.167969 69.753906 156.230469 69.945312 154.296875 C 70.136719 152.363281 70.375 150.4375 70.660156 148.515625 C 70.945312 146.59375 71.277344 144.683594 71.65625 142.777344 C 72.035156 140.871094 72.460938 138.976562 72.933594 137.09375 C 73.40625 135.207031 73.925781 133.335938 74.488281 131.476562 C 75.054688 129.621094 75.664062 127.777344 76.316406 125.945312 C 76.972656 124.117188 77.671875 122.304688 78.417969 120.511719 C 79.160156 118.71875 79.949219 116.941406 80.777344 115.1875 C 81.609375 113.429688 82.484375 111.695312 83.402344 109.984375 C 84.316406 108.269531 85.273438 106.578125 86.273438 104.914062 C 87.273438 103.246094 88.3125 101.605469 89.394531 99.992188 C 90.472656 98.378906 91.59375 96.789062 92.75 95.230469 C 93.910156 93.667969 95.105469 92.136719 96.339844 90.636719 C 97.570312 89.136719 98.839844 87.664062 100.148438 86.226562 C 101.453125 84.785156 102.792969 83.378906 104.167969 82.007812 C 105.542969 80.632812 106.949219 79.292969 108.390625 77.988281 C 109.832031 76.683594 111.304688 75.417969 112.804688 74.183594 C 114.308594 72.953125 115.839844 71.757812 117.402344 70.601562 C 118.964844 69.445312 120.554688 68.324219 122.167969 67.246094 C 123.785156 66.167969 125.429688 65.128906 127.09375 64.128906 C 128.761719 63.132812 130.453125 62.175781 132.167969 61.257812 C 133.882812 60.34375 135.621094 59.46875 137.375 58.640625 C 139.132812 57.808594 140.910156 57.023438 142.707031 56.277344 C 144.503906 55.535156 146.316406 54.835938 148.148438 54.183594 C 149.976562 53.527344 151.824219 52.917969 153.683594 52.355469 C 155.542969 51.789062 157.417969 51.273438 159.304688 50.800781 C 161.1875 50.328125 163.085938 49.902344 164.992188 49.523438 C 166.898438 49.144531 168.8125 48.8125 170.738281 48.527344 C 172.660156 48.242188 174.589844 48.003906 176.523438 47.816406 C 178.457031 47.625 180.398438 47.480469 182.339844 47.386719 C 184.28125 47.292969 186.222656 47.242188 188.167969 47.242188 C 190.113281 47.242188 192.054688 47.292969 193.996094 47.386719 C 195.9375 47.480469 197.875 47.625 199.8125 47.816406 C 201.746094 48.003906 203.675781 48.242188 205.597656 48.527344 C 207.523438 48.8125 209.4375 49.144531 211.34375 49.523438 C 213.25 49.902344 215.148438 50.328125 217.03125 50.800781 C 218.917969 51.273438 220.792969 51.789062 222.652344 52.355469 C 224.511719 52.917969 226.359375 53.527344 228.1875 54.183594 C 230.019531 54.835938 231.832031 55.535156 233.628906 56.277344 C 235.425781 57.023438 237.203125 57.808594 238.957031 58.640625 C 240.714844 59.46875 242.453125 60.34375 244.167969 61.257812 C 245.882812 62.175781 247.574219 63.132812 249.242188 64.128906 C 250.90625 65.128906 252.550781 66.167969 254.167969 67.246094 C 255.78125 68.324219 257.371094 69.445312 258.933594 70.601562 C 260.496094 71.757812 262.027344 72.953125 263.53125 74.183594 C 265.03125 75.417969 266.503906 76.683594 267.945312 77.988281 C 269.386719 79.292969 270.792969 80.632812 272.167969 82.007812 C 273.542969 83.378906 274.882812 84.785156 276.1875 86.226562 C 277.496094 87.664062 278.761719 89.136719 279.996094 90.636719 C 281.230469 92.136719 282.425781 93.667969 283.585938 95.230469 C 284.742188 96.789062 285.863281 98.378906 286.941406 99.992188 C 288.023438 101.605469 289.0625 103.246094 290.0625 104.914062 C 291.058594 106.578125 292.019531 108.269531 292.933594 109.984375 C 293.851562 111.695312 294.726562 113.429688 295.554688 115.1875 C 296.386719 116.941406 297.175781 118.71875 297.917969 120.511719 C 298.664062 122.304688 299.363281 124.117188 300.019531 125.945312 C 300.671875 127.777344 301.28125 129.621094 301.847656 131.476562 C 302.410156 133.335938 302.929688 135.207031 303.402344 137.09375 C 303.875 138.976562 304.300781 140.871094 304.679688 142.777344 C 305.058594 144.683594 305.390625 146.59375 305.675781 148.515625 C 305.960938 150.4375 306.199219 152.363281 306.390625 154.296875 C 306.582031 156.230469 306.722656 158.167969 306.820312 160.109375 C 306.914062 162.046875 306.960938 163.988281 306.960938 165.933594 Z M 306.960938 165.933594 "/>
<path style=" stroke:none;fill-rule:nonzero;fill:rgb(100%,100%,100%);fill-opacity:1;" d="M 235.964844 136.558594 L 235.964844 101.703125 L 221.84375 101.703125 L 221.84375 122.445312 L 186.5 87.140625 L 115.921875 157.660156 L 125.90625 167.636719 L 186.5 107.097656 L 247.160156 167.699219 L 257.144531 157.722656 Z M 235.964844 136.558594 "/>
<path style=" stroke:none;fill-rule:nonzero;fill:rgb(100%,100%,100%);fill-opacity:1;" d="M 137.105469 172.6875 L 137.105469 228.683594 L 172.484375 228.683594 L 172.484375 193.410156 L 200.585938 193.410156 L 200.585938 228.683594 L 235.964844 228.683594 L 235.964844 172.6875 L 186.542969 122.851562 Z M 137.105469 172.6875 "/>
</g>
</svg>
