<?xml version="1.0" encoding="UTF-8"?>
<svg xmlns="http://www.w3.org/2000/svg" xmlns:xlink="http://www.w3.org/1999/xlink" width="375pt" height="374.999991pt" viewBox="0 0 375 374.999991" version="1.2">
<defs>
<clipPath id="clip1">
  <path d="M 58 354 L 78 354 L 78 373.617188 L 58 373.617188 Z M 58 354 "/>
</clipPath>
</defs>
<g id="surface1">
<path style=" stroke:none;fill-rule:nonzero;fill:rgb(94.509888%,73.728943%,9.799194%);fill-opacity:1;" d="M 314.710938 7.082031 C 314.398438 7.082031 314.089844 7.113281 313.785156 7.175781 C 313.476562 7.234375 313.179688 7.324219 312.890625 7.445312 C 312.605469 7.566406 312.328125 7.710938 312.070312 7.882812 C 311.8125 8.058594 311.570312 8.253906 311.351562 8.476562 C 311.128906 8.695312 310.933594 8.9375 310.757812 9.195312 C 310.585938 9.457031 310.4375 9.730469 310.320312 10.019531 C 310.199219 10.304688 310.109375 10.605469 310.050781 10.910156 C 309.988281 11.214844 309.957031 11.523438 309.957031 11.835938 C 309.957031 12.148438 309.988281 12.457031 310.050781 12.765625 C 310.109375 13.070312 310.199219 13.367188 310.320312 13.65625 C 310.4375 13.945312 310.585938 14.21875 310.757812 14.480469 C 310.933594 14.738281 311.128906 14.976562 311.351562 15.199219 C 311.570312 15.417969 311.8125 15.617188 312.070312 15.789062 C 312.328125 15.964844 312.605469 16.109375 312.890625 16.230469 C 313.179688 16.347656 313.476562 16.4375 313.785156 16.5 C 314.089844 16.5625 314.398438 16.589844 314.710938 16.589844 C 315.023438 16.589844 315.332031 16.5625 315.640625 16.5 C 315.945312 16.4375 316.242188 16.347656 316.53125 16.230469 C 316.820312 16.109375 317.09375 15.964844 317.351562 15.789062 C 317.613281 15.617188 317.851562 15.417969 318.074219 15.199219 C 318.292969 14.976562 318.492188 14.738281 318.664062 14.480469 C 318.835938 14.21875 318.984375 13.945312 319.105469 13.65625 C 319.222656 13.367188 319.3125 13.070312 319.375 12.765625 C 319.433594 12.457031 319.464844 12.148438 319.464844 11.835938 C 319.464844 11.523438 319.433594 11.214844 319.375 10.910156 C 319.3125 10.605469 319.222656 10.304688 319.105469 10.019531 C 318.984375 9.730469 318.835938 9.457031 318.664062 9.195312 C 318.492188 8.9375 318.292969 8.695312 318.074219 8.476562 C 317.851562 8.253906 317.613281 8.058594 317.351562 7.882812 C 317.09375 7.710938 316.820312 7.566406 316.53125 7.445312 C 316.242188 7.324219 315.945312 7.234375 315.640625 7.175781 C 315.332031 7.113281 315.023438 7.082031 314.710938 7.082031 Z M 314.710938 7.082031 "/>
<path style=" stroke:none;fill-rule:nonzero;fill:rgb(90.19928%,92.939758%,71.759033%);fill-opacity:1;" d="M 186.355469 11.835938 C 183.476562 11.835938 180.597656 11.90625 177.722656 12.050781 C 174.847656 12.191406 171.980469 12.402344 169.113281 12.683594 C 166.25 12.964844 163.394531 13.320312 160.546875 13.742188 C 157.699219 14.164062 154.863281 14.65625 152.039062 15.21875 C 149.214844 15.777344 146.40625 16.410156 143.617188 17.109375 C 140.824219 17.808594 138.050781 18.574219 135.296875 19.410156 C 132.539062 20.246094 129.808594 21.148438 127.097656 22.121094 C 124.386719 23.089844 121.703125 24.125 119.042969 25.226562 C 116.382812 26.328125 113.75 27.496094 111.148438 28.726562 C 108.546875 29.957031 105.976562 31.25 103.4375 32.605469 C 100.898438 33.964844 98.394531 35.382812 95.925781 36.863281 C 93.457031 38.34375 91.027344 39.882812 88.632812 41.480469 C 86.238281 43.082031 83.886719 44.738281 81.574219 46.453125 C 79.261719 48.167969 76.992188 49.9375 74.765625 51.765625 C 72.542969 53.589844 70.363281 55.46875 68.230469 57.402344 C 66.097656 59.335938 64.011719 61.320312 61.976562 63.355469 C 59.941406 65.390625 57.957031 67.476562 56.023438 69.609375 C 54.089844 71.742188 52.210938 73.921875 50.386719 76.144531 C 48.558594 78.371094 46.789062 80.640625 45.074219 82.953125 C 43.359375 85.265625 41.703125 87.617188 40.101562 90.011719 C 38.503906 92.40625 36.964844 94.835938 35.484375 97.304688 C 34.003906 99.773438 32.585938 102.277344 31.226562 104.816406 C 29.871094 107.355469 28.578125 109.925781 27.347656 112.527344 C 26.117188 115.128906 24.949219 117.761719 23.847656 120.421875 C 22.746094 123.082031 21.710938 125.765625 20.742188 128.476562 C 19.769531 131.1875 18.867188 133.917969 18.03125 136.671875 C 17.195312 139.429688 16.429688 142.203125 15.730469 144.996094 C 15.03125 147.785156 14.398438 150.59375 13.839844 153.417969 C 13.277344 156.242188 12.785156 159.078125 12.363281 161.925781 C 11.941406 164.773438 11.585938 167.628906 11.304688 170.492188 C 11.023438 173.359375 10.8125 176.226562 10.671875 179.101562 C 10.53125 181.976562 10.457031 184.855469 10.457031 187.734375 C 10.457031 190.613281 10.53125 193.488281 10.671875 196.363281 C 10.8125 199.238281 11.023438 202.109375 11.304688 204.972656 C 11.585938 207.839844 11.941406 210.695312 12.363281 213.542969 C 12.785156 216.390625 13.277344 219.226562 13.839844 222.050781 C 14.398438 224.871094 15.03125 227.679688 15.730469 230.472656 C 16.429688 233.265625 17.195312 236.039062 18.03125 238.792969 C 18.867188 241.546875 19.769531 244.28125 20.742188 246.992188 C 21.710938 249.703125 22.746094 252.386719 23.847656 255.046875 C 24.949219 257.707031 26.117188 260.335938 27.347656 262.9375 C 28.578125 265.542969 29.871094 268.113281 31.226562 270.652344 C 32.585938 273.1875 34.003906 275.691406 35.484375 278.164062 C 36.964844 280.632812 38.503906 283.0625 40.101562 285.457031 C 41.703125 287.851562 43.359375 290.203125 45.074219 292.515625 C 46.789062 294.828125 48.558594 297.097656 50.386719 299.320312 C 52.210938 301.546875 54.089844 303.726562 56.023438 305.859375 C 57.957031 307.992188 59.941406 310.074219 61.976562 312.109375 C 64.011719 314.148438 66.097656 316.128906 68.230469 318.0625 C 70.363281 319.996094 72.542969 321.878906 74.765625 323.703125 C 76.992188 325.53125 79.261719 327.300781 81.574219 329.015625 C 83.886719 330.730469 86.238281 332.386719 88.632812 333.984375 C 91.027344 335.585938 93.457031 337.125 95.925781 338.605469 C 98.394531 340.085938 100.898438 341.503906 103.4375 342.859375 C 105.976562 344.21875 108.546875 345.511719 111.148438 346.742188 C 113.75 347.972656 116.382812 349.140625 119.042969 350.242188 C 121.703125 351.34375 124.386719 352.378906 127.097656 353.347656 C 129.808594 354.316406 132.539062 355.21875 135.296875 356.054688 C 138.050781 356.890625 140.824219 357.660156 143.617188 358.359375 C 146.40625 359.058594 149.214844 359.6875 152.039062 360.25 C 154.863281 360.8125 157.699219 361.304688 160.546875 361.726562 C 163.394531 362.148438 166.25 362.5 169.113281 362.78125 C 171.980469 363.066406 174.847656 363.277344 177.722656 363.417969 C 180.597656 363.558594 183.476562 363.628906 186.355469 363.628906 C 189.234375 363.628906 192.109375 363.558594 194.984375 363.417969 C 197.859375 363.277344 200.730469 363.066406 203.597656 362.78125 C 206.460938 362.5 209.316406 362.148438 212.164062 361.726562 C 215.011719 361.304688 217.847656 360.8125 220.671875 360.25 C 223.492188 359.6875 226.300781 359.058594 229.09375 358.359375 C 231.886719 357.660156 234.660156 356.890625 237.414062 356.054688 C 240.167969 355.21875 242.902344 354.316406 245.613281 353.347656 C 248.324219 352.378906 251.007812 351.34375 253.667969 350.242188 C 256.328125 349.140625 258.957031 347.972656 261.558594 346.742188 C 264.164062 345.511719 266.734375 344.21875 269.273438 342.859375 C 271.808594 341.503906 274.3125 340.085938 276.785156 338.605469 C 279.253906 337.125 281.683594 335.585938 284.078125 333.984375 C 286.472656 332.386719 288.824219 330.730469 291.136719 329.015625 C 293.449219 327.300781 295.71875 325.53125 297.941406 323.703125 C 300.167969 321.878906 302.347656 319.996094 304.480469 318.0625 C 306.613281 316.128906 308.695312 314.148438 310.730469 312.109375 C 312.769531 310.074219 314.753906 307.992188 316.683594 305.859375 C 318.617188 303.726562 320.5 301.546875 322.324219 299.320312 C 324.152344 297.097656 325.921875 294.828125 327.636719 292.515625 C 329.351562 290.203125 331.007812 287.851562 332.605469 285.457031 C 334.207031 283.0625 335.746094 280.632812 337.226562 278.164062 C 338.707031 275.691406 340.125 273.1875 341.480469 270.652344 C 342.839844 268.113281 344.132812 265.542969 345.363281 262.9375 C 346.59375 260.335938 347.761719 257.707031 348.863281 255.046875 C 349.964844 252.386719 351 249.703125 351.96875 246.992188 C 352.9375 244.28125 353.839844 241.546875 354.675781 238.792969 C 355.511719 236.039062 356.28125 233.265625 356.980469 230.472656 C 357.679688 227.679688 358.308594 224.871094 358.871094 222.050781 C 359.433594 219.226562 359.925781 216.390625 360.347656 213.542969 C 360.769531 210.695312 361.121094 207.839844 361.402344 204.972656 C 361.6875 202.109375 361.898438 199.238281 362.039062 196.363281 C 362.179688 193.488281 362.25 190.613281 362.25 187.734375 C 362.25 184.855469 362.179688 181.976562 362.039062 179.101562 C 361.898438 176.226562 361.6875 173.359375 361.402344 170.492188 C 361.121094 167.628906 360.769531 164.773438 360.347656 161.925781 C 359.925781 159.078125 359.433594 156.242188 358.871094 153.417969 C 358.308594 150.59375 357.679688 147.785156 356.980469 144.996094 C 356.28125 142.203125 355.511719 139.429688 354.675781 136.671875 C 353.839844 133.917969 352.9375 131.1875 351.96875 128.476562 C 351 125.765625 349.964844 123.082031 348.863281 120.421875 C 347.761719 117.761719 346.59375 115.128906 345.363281 112.527344 C 344.132812 109.925781 342.839844 107.355469 341.480469 104.816406 C 340.125 102.277344 338.707031 99.773438 337.226562 97.304688 C 335.746094 94.835938 334.207031 92.40625 332.605469 90.011719 C 331.007812 87.617188 329.351562 85.265625 327.636719 82.953125 C 325.921875 80.640625 324.152344 78.371094 322.324219 76.144531 C 320.5 73.921875 318.617188 71.742188 316.683594 69.609375 C 314.753906 67.476562 312.769531 65.390625 310.730469 63.355469 C 308.695312 61.320312 306.613281 59.335938 304.480469 57.402344 C 302.347656 55.46875 300.167969 53.589844 297.941406 51.765625 C 295.71875 49.9375 293.449219 48.167969 291.136719 46.453125 C 288.824219 44.738281 286.472656 43.082031 284.078125 41.480469 C 281.683594 39.882812 279.253906 38.34375 276.785156 36.863281 C 274.3125 35.382812 271.808594 33.964844 269.273438 32.605469 C 266.734375 31.25 264.164062 29.957031 261.558594 28.726562 C 258.957031 27.496094 256.328125 26.328125 253.667969 25.226562 C 251.007812 24.125 248.324219 23.089844 245.613281 22.121094 C 242.902344 21.148438 240.167969 20.246094 237.414062 19.410156 C 234.660156 18.574219 231.886719 17.808594 229.09375 17.109375 C 226.300781 16.410156 223.492188 15.777344 220.671875 15.21875 C 217.847656 14.65625 215.011719 14.164062 212.164062 13.742188 C 209.316406 13.320312 206.460938 12.964844 203.597656 12.683594 C 200.730469 12.402344 197.859375 12.191406 194.984375 12.050781 C 192.109375 11.90625 189.234375 11.835938 186.355469 11.835938 Z M 186.355469 11.835938 "/>
<path style=" stroke:none;fill-rule:nonzero;fill:rgb(94.509888%,73.728943%,9.799194%);fill-opacity:1;" d="M 343.234375 2.328125 C 342.613281 2.328125 341.992188 2.359375 341.371094 2.421875 C 340.75 2.480469 340.136719 2.574219 339.527344 2.695312 C 338.914062 2.816406 338.3125 2.96875 337.714844 3.148438 C 337.121094 3.328125 336.535156 3.539062 335.957031 3.777344 C 335.382812 4.015625 334.820312 4.28125 334.269531 4.574219 C 333.722656 4.867188 333.1875 5.1875 332.671875 5.535156 C 332.152344 5.878906 331.652344 6.25 331.171875 6.644531 C 330.691406 7.039062 330.230469 7.457031 329.789062 7.898438 C 329.347656 8.339844 328.929688 8.800781 328.535156 9.28125 C 328.140625 9.761719 327.769531 10.261719 327.425781 10.78125 C 327.078125 11.296875 326.757812 11.832031 326.464844 12.382812 C 326.171875 12.929688 325.90625 13.492188 325.667969 14.066406 C 325.429688 14.644531 325.21875 15.230469 325.039062 15.824219 C 324.859375 16.421875 324.707031 17.023438 324.585938 17.636719 C 324.464844 18.246094 324.371094 18.863281 324.3125 19.480469 C 324.25 20.101562 324.21875 20.722656 324.21875 21.34375 C 324.21875 21.96875 324.25 22.589844 324.3125 23.210938 C 324.371094 23.828125 324.464844 24.445312 324.585938 25.054688 C 324.707031 25.664062 324.859375 26.269531 325.039062 26.867188 C 325.21875 27.460938 325.429688 28.046875 325.667969 28.621094 C 325.90625 29.199219 326.171875 29.761719 326.464844 30.308594 C 326.757812 30.859375 327.078125 31.390625 327.425781 31.910156 C 327.769531 32.429688 328.140625 32.925781 328.535156 33.410156 C 328.929688 33.890625 329.347656 34.351562 329.789062 34.792969 C 330.230469 35.230469 330.691406 35.648438 331.171875 36.042969 C 331.652344 36.441406 332.152344 36.808594 332.671875 37.15625 C 333.1875 37.503906 333.722656 37.820312 334.269531 38.117188 C 334.820312 38.410156 335.382812 38.675781 335.957031 38.914062 C 336.535156 39.152344 337.121094 39.363281 337.714844 39.542969 C 338.3125 39.722656 338.914062 39.875 339.527344 39.996094 C 340.136719 40.117188 340.75 40.207031 341.371094 40.269531 C 341.992188 40.332031 342.613281 40.359375 343.234375 40.359375 C 343.859375 40.359375 344.480469 40.332031 345.097656 40.269531 C 345.71875 40.207031 346.335938 40.117188 346.945312 39.996094 C 347.554688 39.875 348.160156 39.722656 348.753906 39.542969 C 349.351562 39.363281 349.9375 39.152344 350.511719 38.914062 C 351.085938 38.675781 351.648438 38.410156 352.199219 38.117188 C 352.75 37.820312 353.28125 37.503906 353.800781 37.15625 C 354.316406 36.808594 354.816406 36.441406 355.296875 36.042969 C 355.78125 35.648438 356.242188 35.230469 356.679688 34.792969 C 357.121094 34.351562 357.539062 33.890625 357.933594 33.410156 C 358.328125 32.925781 358.699219 32.429688 359.046875 31.910156 C 359.390625 31.390625 359.710938 30.859375 360.003906 30.308594 C 360.300781 29.761719 360.566406 29.199219 360.804688 28.621094 C 361.042969 28.046875 361.25 27.460938 361.433594 26.867188 C 361.613281 26.269531 361.765625 25.664062 361.886719 25.054688 C 362.007812 24.445312 362.097656 23.828125 362.160156 23.210938 C 362.21875 22.589844 362.25 21.96875 362.25 21.34375 C 362.25 20.722656 362.21875 20.101562 362.160156 19.480469 C 362.097656 18.863281 362.007812 18.246094 361.886719 17.636719 C 361.765625 17.023438 361.613281 16.421875 361.433594 15.824219 C 361.25 15.230469 361.042969 14.644531 360.804688 14.066406 C 360.566406 13.492188 360.300781 12.929688 360.003906 12.382812 C 359.710938 11.832031 359.390625 11.296875 359.046875 10.78125 C 358.699219 10.261719 358.328125 9.761719 357.933594 9.28125 C 357.539062 8.800781 357.121094 8.339844 356.679688 7.898438 C 356.242188 7.457031 355.78125 7.039062 355.296875 6.644531 C 354.816406 6.25 354.316406 5.878906 353.800781 5.535156 C 353.28125 5.1875 352.75 4.867188 352.199219 4.574219 C 351.648438 4.28125 351.085938 4.015625 350.511719 3.777344 C 349.9375 3.539062 349.351562 3.328125 348.753906 3.148438 C 348.160156 2.96875 347.554688 2.816406 346.945312 2.695312 C 346.335938 2.574219 345.71875 2.480469 345.097656 2.421875 C 344.480469 2.359375 343.859375 2.328125 343.234375 2.328125 Z M 343.234375 2.328125 "/>
<path style=" stroke:none;fill-rule:nonzero;fill:rgb(53.329468%,68.238831%,27.059937%);fill-opacity:1;" d="M 362.25 54.621094 C 361.625 54.621094 361.007812 54.683594 360.394531 54.804688 C 359.785156 54.925781 359.1875 55.109375 358.613281 55.347656 C 358.035156 55.585938 357.488281 55.878906 356.96875 56.226562 C 356.449219 56.570312 355.96875 56.964844 355.527344 57.40625 C 355.085938 57.847656 354.691406 58.328125 354.34375 58.847656 C 354 59.367188 353.707031 59.914062 353.46875 60.492188 C 353.226562 61.070312 353.046875 61.664062 352.925781 62.277344 C 352.804688 62.886719 352.742188 63.507812 352.742188 64.128906 C 352.742188 64.753906 352.804688 65.375 352.925781 65.984375 C 353.046875 66.597656 353.226562 67.191406 353.46875 67.769531 C 353.707031 68.347656 354 68.894531 354.34375 69.414062 C 354.691406 69.933594 355.085938 70.414062 355.527344 70.855469 C 355.96875 71.296875 356.449219 71.691406 356.96875 72.035156 C 357.488281 72.382812 358.035156 72.675781 358.613281 72.914062 C 359.1875 73.152344 359.785156 73.335938 360.394531 73.457031 C 361.007812 73.578125 361.625 73.640625 362.25 73.640625 C 362.875 73.640625 363.492188 73.578125 364.105469 73.457031 C 364.71875 73.335938 365.3125 73.152344 365.890625 72.914062 C 366.464844 72.675781 367.015625 72.382812 367.535156 72.035156 C 368.050781 71.691406 368.53125 71.296875 368.972656 70.855469 C 369.414062 70.414062 369.808594 69.933594 370.15625 69.414062 C 370.503906 68.894531 370.796875 68.347656 371.035156 67.769531 C 371.273438 67.191406 371.453125 66.597656 371.578125 65.984375 C 371.699219 65.375 371.757812 64.753906 371.757812 64.128906 C 371.757812 63.507812 371.699219 62.886719 371.578125 62.277344 C 371.453125 61.664062 371.273438 61.070312 371.035156 60.492188 C 370.796875 59.914062 370.503906 59.367188 370.15625 58.847656 C 369.808594 58.328125 369.414062 57.847656 368.972656 57.40625 C 368.53125 56.964844 368.050781 56.570312 367.535156 56.226562 C 367.015625 55.878906 366.464844 55.585938 365.890625 55.347656 C 365.3125 55.109375 364.71875 54.925781 364.105469 54.804688 C 363.492188 54.683594 362.875 54.621094 362.25 54.621094 Z M 362.25 54.621094 "/>
<path style=" stroke:none;fill-rule:nonzero;fill:rgb(98.429871%,80.389404%,34.899902%);fill-opacity:1;" d="M 333.726562 301.828125 C 333.101562 301.828125 332.484375 301.890625 331.871094 302.011719 C 331.261719 302.132812 330.664062 302.3125 330.089844 302.550781 C 329.511719 302.792969 328.964844 303.082031 328.445312 303.429688 C 327.925781 303.777344 327.445312 304.171875 327.003906 304.613281 C 326.5625 305.054688 326.167969 305.535156 325.820312 306.054688 C 325.476562 306.574219 325.183594 307.121094 324.941406 307.699219 C 324.703125 308.273438 324.523438 308.867188 324.402344 309.480469 C 324.28125 310.09375 324.21875 310.710938 324.21875 311.335938 C 324.21875 311.960938 324.28125 312.578125 324.402344 313.191406 C 324.523438 313.804688 324.703125 314.398438 324.941406 314.976562 C 325.183594 315.550781 325.476562 316.097656 325.820312 316.617188 C 326.167969 317.136719 326.5625 317.617188 327.003906 318.058594 C 327.445312 318.5 327.925781 318.894531 328.445312 319.242188 C 328.964844 319.589844 329.511719 319.882812 330.089844 320.121094 C 330.664062 320.359375 331.261719 320.539062 331.871094 320.660156 C 332.484375 320.785156 333.101562 320.84375 333.726562 320.84375 C 334.351562 320.84375 334.96875 320.785156 335.582031 320.660156 C 336.195312 320.539062 336.789062 320.359375 337.367188 320.121094 C 337.941406 319.882812 338.492188 319.589844 339.007812 319.242188 C 339.527344 318.894531 340.007812 318.5 340.449219 318.058594 C 340.890625 317.617188 341.285156 317.136719 341.632812 316.617188 C 341.980469 316.097656 342.273438 315.550781 342.511719 314.976562 C 342.75 314.398438 342.929688 313.804688 343.050781 313.191406 C 343.175781 312.578125 343.234375 311.960938 343.234375 311.335938 C 343.234375 310.710938 343.175781 310.09375 343.050781 309.480469 C 342.929688 308.867188 342.75 308.273438 342.511719 307.699219 C 342.273438 307.121094 341.980469 306.574219 341.632812 306.054688 C 341.285156 305.535156 340.890625 305.054688 340.449219 304.613281 C 340.007812 304.171875 339.527344 303.777344 339.007812 303.429688 C 338.492188 303.082031 337.941406 302.792969 337.367188 302.550781 C 336.789062 302.3125 336.195312 302.132812 335.582031 302.011719 C 334.96875 301.890625 334.351562 301.828125 333.726562 301.828125 Z M 19.964844 230.519531 C 19.34375 230.519531 18.722656 230.550781 18.101562 230.609375 C 17.484375 230.671875 16.867188 230.761719 16.257812 230.882812 C 15.644531 231.007812 15.042969 231.15625 14.445312 231.339844 C 13.851562 231.519531 13.265625 231.726562 12.691406 231.964844 C 12.113281 232.203125 11.550781 232.472656 11.003906 232.765625 C 10.453125 233.058594 9.917969 233.378906 9.402344 233.722656 C 8.882812 234.070312 8.382812 234.441406 7.902344 234.835938 C 7.421875 235.230469 6.960938 235.648438 6.519531 236.089844 C 6.078125 236.527344 5.664062 236.988281 5.265625 237.472656 C 4.871094 237.953125 4.5 238.453125 4.15625 238.96875 C 3.808594 239.488281 3.488281 240.023438 3.195312 240.570312 C 2.902344 241.121094 2.636719 241.683594 2.398438 242.257812 C 2.160156 242.832031 1.949219 243.417969 1.769531 244.015625 C 1.589844 244.609375 1.4375 245.214844 1.316406 245.824219 C 1.195312 246.4375 1.101562 247.050781 1.042969 247.671875 C 0.980469 248.289062 0.949219 248.914062 0.949219 249.535156 C 0.949219 250.15625 0.980469 250.777344 1.042969 251.398438 C 1.101562 252.019531 1.195312 252.632812 1.316406 253.246094 C 1.4375 253.855469 1.589844 254.460938 1.769531 255.054688 C 1.949219 255.652344 2.160156 256.238281 2.398438 256.8125 C 2.636719 257.386719 2.902344 257.949219 3.195312 258.5 C 3.488281 259.046875 3.808594 259.582031 4.15625 260.097656 C 4.5 260.617188 4.871094 261.117188 5.265625 261.597656 C 5.664062 262.078125 6.078125 262.539062 6.519531 262.980469 C 6.960938 263.421875 7.421875 263.839844 7.902344 264.234375 C 8.382812 264.628906 8.882812 265 9.402344 265.347656 C 9.917969 265.691406 10.453125 266.011719 11.003906 266.304688 C 11.550781 266.597656 12.113281 266.863281 12.691406 267.101562 C 13.265625 267.339844 13.851562 267.550781 14.445312 267.730469 C 15.042969 267.914062 15.644531 268.0625 16.257812 268.183594 C 16.867188 268.308594 17.484375 268.398438 18.101562 268.460938 C 18.722656 268.519531 19.34375 268.550781 19.964844 268.550781 C 20.589844 268.550781 21.210938 268.519531 21.832031 268.460938 C 22.449219 268.398438 23.066406 268.308594 23.675781 268.183594 C 24.289062 268.0625 24.890625 267.914062 25.488281 267.730469 C 26.082031 267.550781 26.667969 267.339844 27.242188 267.101562 C 27.820312 266.863281 28.382812 266.597656 28.929688 266.304688 C 29.480469 266.011719 30.011719 265.691406 30.53125 265.347656 C 31.050781 265 31.546875 264.628906 32.03125 264.234375 C 32.511719 263.839844 32.972656 263.421875 33.414062 262.980469 C 33.851562 262.539062 34.269531 262.078125 34.664062 261.597656 C 35.0625 261.117188 35.433594 260.617188 35.777344 260.097656 C 36.125 259.582031 36.445312 259.046875 36.738281 258.5 C 37.03125 257.949219 37.296875 257.386719 37.535156 256.8125 C 37.773438 256.238281 37.984375 255.652344 38.164062 255.054688 C 38.34375 254.460938 38.496094 253.855469 38.617188 253.246094 C 38.738281 252.632812 38.828125 252.019531 38.890625 251.398438 C 38.953125 250.777344 38.980469 250.15625 38.980469 249.535156 C 38.980469 248.914062 38.953125 248.289062 38.890625 247.671875 C 38.828125 247.050781 38.738281 246.4375 38.617188 245.824219 C 38.496094 245.214844 38.34375 244.609375 38.164062 244.015625 C 37.984375 243.417969 37.773438 242.832031 37.535156 242.257812 C 37.296875 241.683594 37.03125 241.121094 36.738281 240.570312 C 36.445312 240.023438 36.125 239.488281 35.777344 238.96875 C 35.433594 238.453125 35.0625 237.953125 34.664062 237.472656 C 34.269531 236.988281 33.851562 236.527344 33.414062 236.089844 C 32.972656 235.648438 32.511719 235.230469 32.03125 234.835938 C 31.546875 234.441406 31.050781 234.070312 30.53125 233.722656 C 30.011719 233.378906 29.480469 233.058594 28.929688 232.765625 C 28.382812 232.472656 27.820312 232.203125 27.242188 231.964844 C 26.667969 231.726562 26.082031 231.519531 25.488281 231.339844 C 24.890625 231.15625 24.289062 231.007812 23.675781 230.882812 C 23.066406 230.761719 22.449219 230.671875 21.832031 230.609375 C 21.210938 230.550781 20.589844 230.519531 19.964844 230.519531 Z M 19.964844 230.519531 "/>
<g clip-path="url(#clip1)" clip-rule="nonzero">
<path style=" stroke:none;fill-rule:nonzero;fill:rgb(53.329468%,68.238831%,27.059937%);fill-opacity:1;" d="M 67.507812 354.121094 C 66.882812 354.121094 66.261719 354.183594 65.652344 354.304688 C 65.039062 354.425781 64.445312 354.605469 63.867188 354.84375 C 63.289062 355.085938 62.742188 355.378906 62.222656 355.722656 C 61.703125 356.070312 61.222656 356.464844 60.78125 356.90625 C 60.339844 357.347656 59.949219 357.828125 59.601562 358.347656 C 59.253906 358.867188 58.960938 359.414062 58.722656 359.992188 C 58.484375 360.566406 58.300781 361.164062 58.179688 361.773438 C 58.058594 362.386719 58 363.003906 58 363.628906 C 58 364.253906 58.058594 364.871094 58.179688 365.484375 C 58.300781 366.097656 58.484375 366.691406 58.722656 367.269531 C 58.960938 367.84375 59.253906 368.394531 59.601562 368.910156 C 59.949219 369.429688 60.339844 369.910156 60.78125 370.351562 C 61.222656 370.792969 61.703125 371.1875 62.222656 371.535156 C 62.742188 371.882812 63.289062 372.175781 63.867188 372.414062 C 64.445312 372.652344 65.039062 372.832031 65.652344 372.953125 C 66.261719 373.078125 66.882812 373.136719 67.507812 373.136719 C 68.128906 373.136719 68.75 373.078125 69.359375 372.953125 C 69.972656 372.832031 70.566406 372.652344 71.144531 372.414062 C 71.722656 372.175781 72.269531 371.882812 72.789062 371.535156 C 73.308594 371.1875 73.789062 370.792969 74.230469 370.351562 C 74.671875 369.910156 75.066406 369.429688 75.410156 368.910156 C 75.757812 368.394531 76.050781 367.84375 76.289062 367.269531 C 76.527344 366.691406 76.710938 366.097656 76.832031 365.484375 C 76.953125 364.871094 77.015625 364.253906 77.015625 363.628906 C 77.015625 363.003906 76.953125 362.386719 76.832031 361.773438 C 76.710938 361.164062 76.527344 360.566406 76.289062 359.992188 C 76.050781 359.414062 75.757812 358.867188 75.410156 358.347656 C 75.066406 357.828125 74.671875 357.347656 74.230469 356.90625 C 73.789062 356.464844 73.308594 356.070312 72.789062 355.722656 C 72.269531 355.378906 71.722656 355.085938 71.144531 354.84375 C 70.566406 354.605469 69.972656 354.425781 69.359375 354.304688 C 68.75 354.183594 68.128906 354.121094 67.507812 354.121094 Z M 67.507812 354.121094 "/>
</g>
<path style=" stroke:none;fill-rule:nonzero;fill:rgb(100%,100%,100%);fill-opacity:1;" d="M 36.605469 182.980469 C 35.824219 182.980469 35.050781 183.054688 34.285156 183.207031 C 33.519531 183.359375 32.777344 183.585938 32.058594 183.882812 C 31.335938 184.183594 30.652344 184.550781 30.003906 184.984375 C 29.355469 185.417969 28.753906 185.910156 28.203125 186.460938 C 27.648438 187.011719 27.15625 187.613281 26.722656 188.261719 C 26.289062 188.910156 25.925781 189.59375 25.625 190.316406 C 25.328125 191.039062 25.101562 191.78125 24.949219 192.546875 C 24.796875 193.3125 24.71875 194.085938 24.71875 194.863281 C 24.71875 195.644531 24.796875 196.417969 24.949219 197.183594 C 25.101562 197.949219 25.328125 198.691406 25.625 199.414062 C 25.925781 200.132812 26.289062 200.820312 26.722656 201.46875 C 27.15625 202.117188 27.648438 202.714844 28.203125 203.269531 C 28.753906 203.820312 29.355469 204.3125 30.003906 204.746094 C 30.652344 205.179688 31.335938 205.546875 32.058594 205.84375 C 32.777344 206.144531 33.519531 206.367188 34.285156 206.519531 C 35.050781 206.671875 35.824219 206.75 36.605469 206.75 C 37.386719 206.75 38.160156 206.671875 38.925781 206.519531 C 39.6875 206.367188 40.433594 206.144531 41.152344 205.84375 C 41.875 205.546875 42.558594 205.179688 43.207031 204.746094 C 43.855469 204.3125 44.457031 203.820312 45.007812 203.269531 C 45.5625 202.714844 46.054688 202.117188 46.488281 201.46875 C 46.921875 200.820312 47.285156 200.132812 47.585938 199.414062 C 47.882812 198.691406 48.109375 197.949219 48.261719 197.183594 C 48.414062 196.417969 48.492188 195.644531 48.492188 194.863281 C 48.492188 194.085938 48.414062 193.3125 48.261719 192.546875 C 48.109375 191.78125 47.882812 191.039062 47.585938 190.316406 C 47.285156 189.59375 46.921875 188.910156 46.488281 188.261719 C 46.054688 187.613281 45.5625 187.011719 45.007812 186.460938 C 44.457031 185.910156 43.855469 185.417969 43.207031 184.984375 C 42.558594 184.550781 41.875 184.183594 41.152344 183.882812 C 40.433594 183.585938 39.6875 183.359375 38.925781 183.207031 C 38.160156 183.054688 37.386719 182.980469 36.605469 182.980469 Z M 326.597656 102.164062 C 326.128906 102.164062 325.664062 102.207031 325.207031 102.300781 C 324.746094 102.390625 324.300781 102.527344 323.867188 102.707031 C 323.433594 102.882812 323.023438 103.105469 322.632812 103.363281 C 322.246094 103.625 321.886719 103.921875 321.554688 104.25 C 321.222656 104.582031 320.925781 104.941406 320.667969 105.332031 C 320.40625 105.722656 320.1875 106.132812 320.007812 106.566406 C 319.828125 106.996094 319.695312 107.441406 319.601562 107.902344 C 319.511719 108.363281 319.464844 108.824219 319.464844 109.292969 C 319.464844 109.761719 319.511719 110.226562 319.601562 110.683594 C 319.695312 111.144531 319.828125 111.589844 320.007812 112.023438 C 320.1875 112.453125 320.40625 112.867188 320.667969 113.253906 C 320.925781 113.644531 321.222656 114.003906 321.554688 114.335938 C 321.886719 114.667969 322.246094 114.960938 322.632812 115.222656 C 323.023438 115.484375 323.433594 115.703125 323.867188 115.882812 C 324.300781 116.0625 324.746094 116.195312 325.207031 116.289062 C 325.664062 116.378906 326.128906 116.425781 326.597656 116.425781 C 327.066406 116.425781 327.527344 116.378906 327.988281 116.289062 C 328.445312 116.195312 328.894531 116.0625 329.324219 115.882812 C 329.757812 115.703125 330.167969 115.484375 330.558594 115.222656 C 330.949219 114.960938 331.308594 114.667969 331.640625 114.335938 C 331.96875 114.003906 332.265625 113.644531 332.527344 113.253906 C 332.785156 112.867188 333.003906 112.453125 333.183594 112.023438 C 333.363281 111.589844 333.5 111.144531 333.589844 110.683594 C 333.683594 110.226562 333.726562 109.761719 333.726562 109.292969 C 333.726562 108.824219 333.683594 108.363281 333.589844 107.902344 C 333.5 107.441406 333.363281 106.996094 333.183594 106.566406 C 333.003906 106.132812 332.785156 105.722656 332.527344 105.332031 C 332.265625 104.941406 331.96875 104.582031 331.640625 104.25 C 331.308594 103.921875 330.949219 103.625 330.558594 103.363281 C 330.167969 103.105469 329.757812 102.882812 329.324219 102.707031 C 328.894531 102.527344 328.445312 102.390625 327.988281 102.300781 C 327.527344 102.207031 327.066406 102.164062 326.597656 102.164062 Z M 326.597656 102.164062 "/>
<path style=" stroke:none;fill-rule:nonzero;fill:rgb(92.939758%,96.859741%,96.078491%);fill-opacity:1;" d="M 119.863281 308.007812 C 105.933594 308.007812 94.605469 297.242188 94.605469 284.011719 L 94.605469 91.457031 C 94.605469 78.226562 105.933594 67.457031 119.863281 67.457031 L 223.332031 67.457031 L 287.613281 128.914062 L 287.613281 284.011719 C 287.613281 297.242188 276.285156 308.007812 262.355469 308.007812 Z M 119.863281 308.007812 "/>
<path style=" stroke:none;fill-rule:nonzero;fill:rgb(27.839661%,16.859436%,16.079712%);fill-opacity:1;" d="M 221.996094 70.785156 L 253.203125 100.621094 L 284.285156 130.335938 L 284.285156 284.011719 C 284.285156 295.40625 274.449219 304.679688 262.355469 304.679688 L 119.863281 304.679688 C 107.773438 304.679688 97.929688 295.40625 97.929688 284.011719 L 97.929688 91.457031 C 97.929688 80.0625 107.765625 70.785156 119.863281 70.785156 L 221.996094 70.785156 M 224.667969 64.128906 L 119.863281 64.128906 C 104.136719 64.128906 91.277344 76.425781 91.277344 91.457031 L 91.277344 284.011719 C 91.277344 299.039062 104.136719 311.335938 119.863281 311.335938 L 262.359375 311.335938 C 278.082031 311.335938 290.941406 299.042969 290.941406 284.011719 L 290.941406 127.492188 C 265.164062 102.851562 250.441406 88.769531 224.667969 64.128906 Z M 224.667969 64.128906 "/>
<path style=" stroke:none;fill-rule:nonzero;fill:rgb(52.159119%,81.17981%,79.998779%);fill-opacity:1;" d="M 222.007812 69.875 L 222.007812 107.875 C 222.007812 121.730469 233.398438 133.0625 247.324219 133.0625 L 286.1875 133.0625 "/>
<path style=" stroke:none;fill-rule:nonzero;fill:rgb(27.839661%,16.859436%,16.079712%);fill-opacity:1;" d="M 286.1875 135.441406 L 247.324219 135.441406 C 232.054688 135.441406 219.632812 123.074219 219.632812 107.875 L 219.632812 69.875 L 224.386719 69.875 L 224.386719 107.875 C 224.386719 120.457031 234.679688 130.6875 247.324219 130.6875 L 286.1875 130.6875 Z M 212.5 86.710938 L 147.136719 86.710938 C 146.480469 86.710938 145.945312 86.179688 145.945312 85.523438 C 145.945312 84.867188 146.480469 84.335938 147.136719 84.335938 L 212.5 84.335938 C 213.15625 84.335938 213.691406 84.867188 213.691406 85.523438 C 213.691406 86.179688 213.15625 86.710938 212.5 86.710938 Z M 256.203125 291.132812 L 126.011719 291.132812 C 117.996094 291.132812 111.480469 284.660156 111.480469 276.703125 L 111.480469 98.761719 C 111.480469 90.804688 117.996094 84.335938 126.011719 84.335938 L 136.4375 84.335938 C 137.09375 84.335938 137.625 84.867188 137.625 85.523438 C 137.625 86.179688 137.09375 86.710938 136.4375 86.710938 L 126.011719 86.710938 C 119.308594 86.710938 113.855469 92.121094 113.855469 98.761719 L 113.855469 276.703125 C 113.855469 283.34375 119.304688 288.753906 126.011719 288.753906 L 256.210938 288.753906 C 262.914062 288.753906 268.367188 283.34375 268.367188 276.703125 L 268.367188 223.386719 C 268.367188 222.730469 268.898438 222.199219 269.554688 222.199219 C 270.210938 222.199219 270.742188 222.730469 270.742188 223.386719 L 270.742188 276.703125 C 270.738281 284.660156 264.21875 291.132812 256.203125 291.132812 Z M 269.550781 210.316406 C 268.894531 210.316406 268.359375 209.78125 268.359375 209.125 L 268.359375 185.355469 C 268.359375 184.699219 268.894531 184.167969 269.550781 184.167969 C 270.207031 184.167969 270.738281 184.699219 270.738281 185.355469 L 270.738281 209.125 C 270.738281 209.78125 270.207031 210.316406 269.550781 210.316406 Z M 269.550781 210.316406 "/>
<path style=" stroke:none;fill-rule:nonzero;fill:rgb(27.839661%,16.859436%,16.079712%);fill-opacity:1;" d="M 269.550781 179.808594 C 268.894531 179.808594 268.359375 179.277344 268.359375 178.621094 L 268.359375 167.925781 C 268.359375 167.269531 268.894531 166.734375 269.550781 166.734375 C 270.207031 166.734375 270.738281 167.269531 270.738281 167.925781 L 270.738281 178.621094 C 270.738281 179.277344 270.207031 179.808594 269.550781 179.808594 Z M 269.550781 179.808594 "/>
<path style=" stroke:none;fill-rule:nonzero;fill:rgb(27.839661%,16.859436%,16.079712%);fill-opacity:1;" d="M 245.78125 205.5625 L 136.4375 205.5625 C 135.78125 205.5625 135.25 205.027344 135.25 204.371094 C 135.25 203.714844 135.78125 203.183594 136.4375 203.183594 L 245.78125 203.183594 C 246.433594 203.183594 246.96875 203.714844 246.96875 204.371094 C 246.96875 205.027344 246.433594 205.5625 245.78125 205.5625 Z M 245.78125 205.5625 "/>
<path style=" stroke:none;fill-rule:nonzero;fill:rgb(27.839661%,16.859436%,16.079712%);fill-opacity:1;" d="M 174.46875 219.824219 L 136.4375 219.824219 C 135.78125 219.824219 135.25 219.289062 135.25 218.632812 C 135.25 217.976562 135.78125 217.445312 136.4375 217.445312 L 174.46875 217.445312 C 175.125 217.445312 175.660156 217.976562 175.660156 218.632812 C 175.660156 219.289062 175.125 219.824219 174.46875 219.824219 Z M 174.46875 219.824219 "/>
<path style=" stroke:none;fill-rule:nonzero;fill:rgb(27.839661%,16.859436%,16.079712%);fill-opacity:1;" d="M 193.484375 234.085938 L 136.4375 234.085938 C 135.78125 234.085938 135.25 233.550781 135.25 232.894531 C 135.25 232.238281 135.78125 231.707031 136.4375 231.707031 L 193.484375 231.707031 C 194.140625 231.707031 194.675781 232.238281 194.675781 232.894531 C 194.675781 233.550781 194.140625 234.085938 193.484375 234.085938 Z M 193.484375 234.085938 "/>
<path style=" stroke:none;fill-rule:nonzero;fill:rgb(27.839661%,16.859436%,16.079712%);fill-opacity:1;" d="M 245.78125 234.085938 L 207.746094 234.085938 C 207.089844 234.085938 206.558594 233.550781 206.558594 232.894531 C 206.558594 232.238281 207.089844 231.707031 207.746094 231.707031 L 245.78125 231.707031 C 246.433594 231.707031 246.96875 232.238281 246.96875 232.894531 C 246.96875 233.550781 246.433594 234.085938 245.78125 234.085938 Z M 245.78125 234.085938 "/>
<path style=" stroke:none;fill-rule:nonzero;fill:rgb(27.839661%,16.859436%,16.079712%);fill-opacity:1;" d="M 245.78125 219.824219 L 183.976562 219.824219 C 183.320312 219.824219 182.789062 219.289062 182.789062 218.632812 C 182.789062 217.976562 183.320312 217.445312 183.976562 217.445312 L 245.78125 217.445312 C 246.433594 217.445312 246.96875 217.976562 246.96875 218.632812 C 246.96875 219.289062 246.433594 219.824219 245.78125 219.824219 Z M 245.78125 219.824219 "/>
<path style=" stroke:none;fill-rule:nonzero;fill:rgb(27.839661%,16.859436%,16.079712%);fill-opacity:1;" d="M 245.78125 248.347656 L 136.4375 248.347656 C 135.78125 248.347656 135.25 247.8125 135.25 247.15625 C 135.25 246.503906 135.78125 245.96875 136.4375 245.96875 L 245.78125 245.96875 C 246.433594 245.96875 246.96875 246.503906 246.96875 247.15625 C 246.96875 247.8125 246.433594 248.347656 245.78125 248.347656 Z M 245.78125 248.347656 "/>
<path style=" stroke:none;fill-rule:nonzero;fill:rgb(27.839661%,16.859436%,16.079712%);fill-opacity:1;" d="M 174.46875 262.609375 L 136.4375 262.609375 C 135.78125 262.609375 135.25 262.074219 135.25 261.417969 C 135.25 260.765625 135.78125 260.230469 136.4375 260.230469 L 174.46875 260.230469 C 175.125 260.230469 175.660156 260.765625 175.660156 261.417969 C 175.660156 262.074219 175.125 262.609375 174.46875 262.609375 Z M 174.46875 262.609375 "/>
<path style=" stroke:none;fill-rule:nonzero;fill:rgb(27.839661%,16.859436%,16.079712%);fill-opacity:1;" d="M 245.78125 262.609375 L 183.976562 262.609375 C 183.320312 262.609375 182.789062 262.074219 182.789062 261.417969 C 182.789062 260.765625 183.320312 260.230469 183.976562 260.230469 L 245.78125 260.230469 C 246.433594 260.230469 246.96875 260.765625 246.96875 261.417969 C 246.96875 262.074219 246.433594 262.609375 245.78125 262.609375 Z M 245.78125 262.609375 "/>
<path style=" stroke:none;fill-rule:nonzero;fill:rgb(100%,100%,100%);fill-opacity:1;" d="M 136.4375 104.539062 L 202.992188 104.539062 L 202.992188 185.355469 L 136.4375 185.355469 Z M 136.4375 104.539062 "/>
<path style=" stroke:none;fill-rule:nonzero;fill:rgb(27.839661%,16.859436%,16.079712%);fill-opacity:1;" d="M 204.183594 186.546875 L 135.25 186.546875 L 135.25 103.351562 L 204.183594 103.351562 Z M 137.625 184.167969 L 201.804688 184.167969 L 201.804688 105.726562 L 137.625 105.726562 Z M 137.625 184.167969 "/>
<path style=" stroke:none;fill-rule:nonzero;fill:rgb(99.609375%,83.529663%,70.199585%);fill-opacity:1;" d="M 160.566406 152.308594 L 177.960938 152.308594 L 177.960938 173.46875 L 160.566406 173.46875 Z M 160.566406 152.308594 "/>
<path style=" stroke:none;fill-rule:nonzero;fill:rgb(27.839661%,16.859436%,16.079712%);fill-opacity:1;" d="M 179.148438 174.65625 L 159.375 174.65625 L 159.375 151.117188 L 179.148438 151.117188 Z M 161.753906 172.277344 L 176.769531 172.277344 L 176.769531 153.496094 L 161.753906 153.496094 Z M 161.753906 172.277344 "/>
<path style=" stroke:none;fill-rule:nonzero;fill:rgb(98.039246%,90.979004%,90.19928%);fill-opacity:1;" d="M 186.40625 138.675781 C 186.40625 149.359375 178.753906 165.234375 169.316406 165.234375 C 159.875 165.234375 152.226562 149.359375 152.226562 138.675781 C 152.226562 127.996094 159.777344 121.089844 169.21875 121.089844 C 178.660156 121.089844 186.40625 128 186.40625 138.675781 Z M 186.40625 138.675781 "/>
<path style=" stroke:none;fill-rule:nonzero;fill:rgb(27.839661%,16.859436%,16.079712%);fill-opacity:1;" d="M 169.316406 166.425781 C 158.886719 166.425781 151.03125 149.597656 151.03125 138.683594 C 151.03125 127.800781 158.671875 119.902344 169.207031 119.902344 C 179.859375 119.902344 187.589844 127.800781 187.589844 138.683594 C 187.597656 149.597656 179.742188 166.425781 169.316406 166.425781 Z M 169.210938 122.277344 C 160.054688 122.277344 153.414062 129.175781 153.414062 138.675781 C 153.414062 148.695312 160.539062 164.042969 169.320312 164.042969 C 178.101562 164.042969 185.222656 148.695312 185.222656 138.675781 C 185.21875 129.179688 178.488281 122.277344 169.210938 122.277344 Z M 169.210938 122.277344 "/>
<path style=" stroke:none;fill-rule:nonzero;fill:rgb(82.749939%,54.508972%,36.468506%);fill-opacity:1;" d="M 154.460938 144.875 C 154.460938 144.875 141.441406 120.871094 165.144531 113.132812 C 175.417969 109.777344 178.164062 118.527344 178.164062 118.527344 C 178.164062 118.527344 185.082031 118.625 187.117188 123.816406 C 189.148438 129.007812 190.066406 136.941406 186.300781 143.449219 C 184.546875 140.105469 183.011719 137.652344 182.246094 131.359375 C 175.652344 133.351562 163 131.570312 157.707031 126.457031 Z M 154.460938 144.875 "/>
<path style=" stroke:none;fill-rule:nonzero;fill:rgb(27.839661%,16.859436%,16.079712%);fill-opacity:1;" d="M 155.039062 148.4375 L 153.414062 145.441406 C 153.152344 144.957031 147.054688 133.515625 151.042969 123.523438 C 153.183594 118.15625 157.800781 114.28125 164.777344 112.007812 C 168.414062 110.824219 171.609375 110.910156 174.257812 112.277344 C 177.03125 113.703125 178.429688 116.144531 178.992188 117.390625 C 181.039062 117.597656 186.34375 118.59375 188.21875 123.390625 C 190.382812 128.890625 191.289062 137.207031 187.328125 144.050781 L 186.246094 145.917969 L 184.816406 143.203125 C 183.320312 140.378906 182.011719 137.917969 181.246094 132.847656 C 174.679688 134.246094 164.34375 132.777344 158.515625 128.664062 Z M 183.261719 129.816406 L 183.429688 131.21875 C 184.011719 135.976562 185.003906 138.378906 186.273438 140.835938 C 188.617188 135.160156 187.761719 128.699219 186.011719 124.253906 C 184.292969 119.851562 178.207031 119.714844 178.148438 119.714844 L 177.296875 119.699219 L 177.03125 118.886719 C 177.023438 118.855469 176.019531 115.839844 173.144531 114.375 C 171.074219 113.324219 168.503906 113.292969 165.519531 114.265625 C 159.253906 116.308594 155.125 119.714844 153.257812 124.390625 C 150.941406 130.203125 152.550781 136.800781 153.980469 140.761719 L 156.921875 124.042969 L 158.535156 125.597656 C 163.414062 130.316406 175.667969 132.113281 181.910156 130.226562 Z M 183.261719 129.816406 "/>
<path style=" stroke:none;fill-rule:nonzero;fill:rgb(93.728638%,32.548523%,56.469727%);fill-opacity:1;" d="M 187.933594 174.820312 L 178.675781 169.90625 C 174.3125 173.199219 164.898438 173 160.667969 169.90625 L 150.90625 174.820312 C 145.816406 177.371094 139.613281 179.925781 139.613281 185.355469 L 199.429688 185.355469 C 199.429688 179.925781 193.832031 177.808594 187.933594 174.820312 Z M 187.933594 174.820312 "/>
<path style=" stroke:none;fill-rule:nonzero;fill:rgb(27.839661%,16.859436%,16.079712%);fill-opacity:1;" d="M 200.617188 186.546875 L 138.421875 186.546875 L 138.421875 185.355469 C 138.421875 179.632812 144.09375 176.847656 149.09375 174.390625 L 160.785156 168.519531 L 161.367188 168.945312 C 165.308594 171.828125 174.148438 171.832031 177.960938 168.960938 L 178.5625 168.5 L 190.308594 174.679688 C 195.609375 177.292969 200.617188 179.757812 200.617188 185.355469 Z M 140.925781 184.167969 L 198.121094 184.167969 C 197.484375 181.027344 194.230469 179.261719 189.257812 176.808594 L 187.378906 175.871094 L 178.757812 171.292969 C 174.09375 174.222656 165.347656 174.21875 160.589844 171.28125 L 150.148438 176.523438 C 146 178.558594 141.71875 180.660156 140.925781 184.167969 Z M 140.925781 184.167969 "/>
</g>
</svg>
