<?xml version="1.0" encoding="UTF-8"?>
<svg xmlns="http://www.w3.org/2000/svg" xmlns:xlink="http://www.w3.org/1999/xlink" width="375pt" height="374.999991pt" viewBox="0 0 375 374.999991" version="1.2">
<defs>
<clipPath id="clip1">
  <path d="M 52.5 0 L 337.5 0 L 337.5 375 L 52.5 375 Z M 52.5 0 "/>
</clipPath>
<clipPath id="clip2">
  <path d="M 72.414062 25.308594 L 150 25.308594 L 150 89 L 72.414062 89 Z M 72.414062 25.308594 "/>
</clipPath>
<clipPath id="clip3">
  <path d="M 99 25.308594 L 150 25.308594 L 150 62 L 99 62 Z M 99 25.308594 "/>
</clipPath>
</defs>
<g id="surface1">
<path style=" stroke:none;fill-rule:nonzero;fill:rgb(100%,100%,100%);fill-opacity:1;" d="M 54.230469 373.34375 L 335.878906 373.34375 L 335.878906 1.769531 L 54.230469 1.769531 Z M 54.230469 373.34375 "/>
<g clip-path="url(#clip1)" clip-rule="nonzero">
<path style=" stroke:none;fill-rule:nonzero;fill:rgb(34.118652%,39.219666%,55.288696%);fill-opacity:1;" d="M 337.574219 0.0742188 L 52.539062 0.0742188 L 52.539062 375.039062 L 337.574219 375.039062 Z M 334.183594 3.464844 L 334.183594 371.648438 L 55.925781 371.648438 L 55.925781 3.464844 L 334.183594 3.464844 "/>
</g>
<path style=" stroke:none;fill-rule:nonzero;fill:rgb(96.859741%,56.858826%,10.978699%);fill-opacity:1;" d="M 76.683594 135.304688 L 163.429688 135.304688 L 163.429688 29.859375 L 76.683594 29.859375 Z M 76.683594 135.304688 "/>
<path style=" stroke:none;fill-rule:nonzero;fill:rgb(91.369629%,39.608765%,29.798889%);fill-opacity:1;" d="M 177.636719 50.660156 L 307.011719 50.660156 L 307.011719 30.292969 L 177.636719 30.292969 L 177.636719 50.660156 "/>
<path style=" stroke:none;fill-rule:nonzero;fill:rgb(91.369629%,91.369629%,91.369629%);fill-opacity:1;" d="M 222.53125 65.007812 L 307.011719 65.007812 L 307.011719 57.703125 L 222.53125 57.703125 L 222.53125 65.007812 "/>
<path style=" stroke:none;fill-rule:nonzero;fill:rgb(91.369629%,91.369629%,91.369629%);fill-opacity:1;" d="M 200.089844 177.101562 L 307.011719 177.101562 L 307.011719 169.789062 L 200.089844 169.789062 L 200.089844 177.101562 "/>
<path style=" stroke:none;fill-rule:nonzero;fill:rgb(91.369629%,91.369629%,91.369629%);fill-opacity:1;" d="M 200.089844 195.261719 L 307.011719 195.261719 L 307.011719 187.957031 L 200.089844 187.957031 L 200.089844 195.261719 "/>
<path style=" stroke:none;fill-rule:nonzero;fill:rgb(91.369629%,91.369629%,91.369629%);fill-opacity:1;" d="M 200.089844 213.429688 L 307.011719 213.429688 L 307.011719 206.121094 L 200.089844 206.121094 L 200.089844 213.429688 "/>
<path style=" stroke:none;fill-rule:nonzero;fill:rgb(91.369629%,91.369629%,91.369629%);fill-opacity:1;" d="M 200.089844 231.589844 L 307.011719 231.589844 L 307.011719 224.285156 L 200.089844 224.285156 L 200.089844 231.589844 "/>
<path style=" stroke:none;fill-rule:nonzero;fill:rgb(91.369629%,91.369629%,91.369629%);fill-opacity:1;" d="M 222.53125 78.933594 L 307.011719 78.933594 L 307.011719 71.617188 L 222.53125 71.617188 L 222.53125 78.933594 "/>
<path style=" stroke:none;fill-rule:nonzero;fill:rgb(91.369629%,91.369629%,91.369629%);fill-opacity:1;" d="M 222.53125 94.015625 L 307.011719 94.015625 L 307.011719 86.707031 L 222.53125 86.707031 L 222.53125 94.015625 "/>
<path style=" stroke:none;fill-rule:nonzero;fill:rgb(91.369629%,91.369629%,91.369629%);fill-opacity:1;" d="M 222.53125 119.820312 L 307.011719 119.820312 L 307.011719 112.511719 L 222.53125 112.511719 L 222.53125 119.820312 "/>
<path style=" stroke:none;fill-rule:nonzero;fill:rgb(91.369629%,91.369629%,91.369629%);fill-opacity:1;" d="M 222.53125 135.304688 L 307.011719 135.304688 L 307.011719 127.992188 L 222.53125 127.992188 L 222.53125 135.304688 "/>
<path style=" stroke:none;fill-rule:nonzero;fill:rgb(91.369629%,39.608765%,29.798889%);fill-opacity:1;" d="M 199.171875 157.601562 L 307.011719 157.601562 L 307.011719 150.289062 L 199.171875 150.289062 L 199.171875 157.601562 "/>
<path style=" stroke:none;fill-rule:nonzero;fill:rgb(91.369629%,91.369629%,91.369629%);fill-opacity:1;" d="M 76.148438 191.609375 L 182.625 191.609375 L 182.625 184.300781 L 76.148438 184.300781 L 76.148438 191.609375 "/>
<path style=" stroke:none;fill-rule:nonzero;fill:rgb(91.369629%,91.369629%,91.369629%);fill-opacity:1;" d="M 76.148438 207.097656 L 182.625 207.097656 L 182.625 199.78125 L 76.148438 199.78125 L 76.148438 207.097656 "/>
<path style=" stroke:none;fill-rule:nonzero;fill:rgb(75.289917%,14.509583%,23.139954%);fill-opacity:1;" d="M 76.148438 223.851562 L 102.792969 223.851562 L 102.792969 216.542969 L 76.148438 216.542969 L 76.148438 223.851562 "/>
<path style=" stroke:none;fill-rule:nonzero;fill:rgb(25.878906%,63.919067%,67.059326%);fill-opacity:1;" d="M 76.148438 239.335938 L 102.792969 239.335938 L 102.792969 232.027344 L 76.148438 232.027344 L 76.148438 239.335938 "/>
<path style=" stroke:none;fill-rule:nonzero;fill:rgb(91.369629%,91.369629%,91.369629%);fill-opacity:1;" d="M 184.207031 223.851562 L 102.792969 223.851562 L 102.792969 216.542969 L 184.207031 216.542969 L 184.207031 223.851562 "/>
<path style=" stroke:none;fill-rule:nonzero;fill:rgb(91.369629%,91.369629%,91.369629%);fill-opacity:1;" d="M 184.207031 239.335938 L 102.792969 239.335938 L 102.792969 232.027344 L 184.207031 232.027344 L 184.207031 239.335938 "/>
<path style=" stroke:none;fill-rule:nonzero;fill:rgb(96.859741%,56.858826%,10.978699%);fill-opacity:1;" d="M 76.148438 254.296875 L 102.792969 254.296875 L 102.792969 246.984375 L 76.148438 246.984375 L 76.148438 254.296875 "/>
<path style=" stroke:none;fill-rule:nonzero;fill:rgb(50.979614%,65.489197%,21.958923%);fill-opacity:1;" d="M 76.148438 269.78125 L 102.792969 269.78125 L 102.792969 262.472656 L 76.148438 262.472656 L 76.148438 269.78125 "/>
<path style=" stroke:none;fill-rule:nonzero;fill:rgb(91.369629%,91.369629%,91.369629%);fill-opacity:1;" d="M 184.207031 254.296875 L 102.792969 254.296875 L 102.792969 246.984375 L 184.207031 246.984375 L 184.207031 254.296875 "/>
<path style=" stroke:none;fill-rule:nonzero;fill:rgb(91.369629%,91.369629%,91.369629%);fill-opacity:1;" d="M 184.207031 269.78125 L 102.792969 269.78125 L 102.792969 262.472656 L 184.207031 262.472656 L 184.207031 269.78125 "/>
<path style=" stroke:none;fill-rule:nonzero;fill:rgb(91.369629%,39.608765%,29.798889%);fill-opacity:1;" d="M 76.757812 173.441406 L 182.625 173.441406 L 182.625 150.289062 L 76.757812 150.289062 L 76.757812 173.441406 "/>
<path style=" stroke:none;fill-rule:nonzero;fill:rgb(91.369629%,39.608765%,29.798889%);fill-opacity:1;" d="M 177.636719 65.007812 L 209.878906 65.007812 L 209.878906 57.703125 L 177.636719 57.703125 L 177.636719 65.007812 "/>
<path style=" stroke:none;fill-rule:nonzero;fill:rgb(91.369629%,39.608765%,29.798889%);fill-opacity:1;" d="M 177.636719 78.933594 L 209.878906 78.933594 L 209.878906 71.617188 L 177.636719 71.617188 L 177.636719 78.933594 "/>
<path style=" stroke:none;fill-rule:nonzero;fill:rgb(25.878906%,63.919067%,67.059326%);fill-opacity:1;" d="M 163.429688 315.835938 C 163.429688 337.292969 146.03125 354.695312 124.566406 354.695312 C 103.105469 354.695312 85.707031 337.292969 85.707031 315.835938 C 85.707031 294.367188 103.105469 276.96875 124.566406 276.96875 C 146.03125 276.96875 163.429688 294.367188 163.429688 315.835938 "/>
<path style=" stroke:none;fill-rule:nonzero;fill:rgb(64.709473%,22.749329%,23.139954%);fill-opacity:1;" d="M 145.785156 115.289062 C 141.578125 126.015625 128.574219 127.019531 120.367188 127.019531 C 112.148438 127.019531 99.234375 126.351562 94.773438 115.289062 C 102.960938 103.871094 89.820312 58.082031 93.410156 50.601562 C 102.90625 30.847656 131.386719 28.605469 137.730469 38.808594 C 142.226562 39.164062 145.53125 46.871094 147.046875 52.167969 C 150.164062 63.089844 139.828125 105.550781 145.785156 115.289062 "/>
<path style=" stroke:none;fill-rule:nonzero;fill:rgb(18.03894%,20.388794%,28.239441%);fill-opacity:1;" d="M 146.160156 135.304688 C 147.226562 127.960938 148 122.816406 148 122.816406 C 148 122.816406 137.476562 115.984375 120.445312 115.984375 C 103.425781 115.984375 92.507812 122.816406 92.507812 122.816406 C 92.507812 122.816406 93.195312 127.960938 94.152344 135.304688 L 146.160156 135.304688 "/>
<path style=" stroke:none;fill-rule:nonzero;fill:rgb(78.42865%,87.059021%,90.589905%);fill-opacity:1;" d="M 132.554688 135.304688 C 134.050781 125.203125 133.675781 117.0625 128.746094 116.484375 C 126.066406 116.171875 123.273438 121.554688 120.445312 121.554688 C 117.152344 121.554688 115.605469 116.03125 112.386719 116.445312 C 107.503906 117.074219 107.417969 125.214844 109.273438 135.304688 L 132.554688 135.304688 "/>
<path style=" stroke:none;fill-rule:nonzero;fill:rgb(97.648621%,66.668701%,47.059631%);fill-opacity:1;" d="M 113.257812 115.984375 L 120.445312 121.554688 L 127.285156 115.984375 L 127.285156 98.898438 L 113.257812 98.898438 L 113.257812 115.984375 "/>
<path style=" stroke:none;fill-rule:nonzero;fill:rgb(79.998779%,47.059631%,30.979919%);fill-opacity:1;" d="M 120.269531 109.148438 C 116.472656 109.148438 113.257812 105.660156 113.257812 105.660156 L 113.257812 104.09375 C 115.902344 105.601562 118.558594 106.589844 120.742188 106.589844 C 122.652344 106.589844 124.941406 105.839844 127.285156 104.648438 L 127.285156 105.660156 C 127.285156 105.660156 124.074219 109.148438 120.269531 109.148438 "/>
<path style=" stroke:none;fill-rule:nonzero;fill:rgb(97.648621%,66.668701%,47.059631%);fill-opacity:1;" d="M 140.683594 91.804688 C 139.667969 96.71875 127.660156 106.589844 120.742188 106.589844 C 113.828125 106.589844 102.222656 96.71875 101.097656 91.804688 C 99.03125 82.722656 95.183594 60.414062 98.09375 53.332031 C 101 46.261719 106.828125 38.382812 119.792969 38.382812 C 133.039062 38.382812 139.796875 43.085938 142.421875 53.332031 C 145.050781 63.589844 142.800781 81.609375 140.683594 91.804688 "/>
<path style=" stroke:none;fill-rule:nonzero;fill:rgb(97.648621%,66.668701%,47.059631%);fill-opacity:1;" d="M 147.867188 80.417969 C 146.167969 82.160156 142.441406 83.03125 141.667969 81.257812 C 140.957031 79.640625 137.730469 78.746094 137.730469 76.230469 C 137.730469 74.101562 142.292969 71.265625 142.292969 71.265625 C 142.292969 71.265625 143.75 66.421875 147.378906 66.636719 C 150.757812 66.835938 150.628906 70.355469 150.367188 72.738281 C 150.113281 75.117188 149.519531 78.71875 147.867188 80.417969 "/>
<path style=" stroke:none;fill-rule:nonzero;fill:rgb(97.648621%,66.668701%,47.059631%);fill-opacity:1;" d="M 93.542969 80.417969 C 95.242188 82.160156 98.972656 83.03125 99.742188 81.257812 C 100.453125 79.640625 103.679688 78.746094 103.675781 76.230469 C 103.675781 74.101562 99.117188 71.265625 99.117188 71.265625 C 99.117188 71.265625 97.664062 66.421875 94.027344 66.636719 C 90.648438 66.835938 91.234375 70.453125 91.492188 72.839844 C 91.753906 75.222656 91.882812 78.71875 93.542969 80.417969 "/>
<path style=" stroke:none;fill-rule:nonzero;fill:rgb(64.709473%,22.749329%,23.139954%);fill-opacity:1;" d="M 141.753906 73.945312 C 145.382812 67.40625 145.488281 58.636719 144.132812 53.332031 C 141.503906 43.085938 133.039062 36.46875 119.792969 36.46875 C 106.828125 36.46875 99.289062 46.261719 96.386719 53.332031 C 94.832031 57.109375 97.488281 68.5625 97.863281 76.484375 C 97.863281 76.484375 99.769531 69.121094 102.703125 66.523438 C 105.183594 64.320312 112.386719 64.804688 117.515625 63.394531 C 125.65625 61.152344 130.007812 56.6875 133.332031 53.464844 C 132.585938 60.226562 141.753906 73.945312 141.753906 73.945312 "/>
<path style=" stroke:none;fill-rule:nonzero;fill:rgb(100%,100%,100%);fill-opacity:1;" d="M 128.511719 91.804688 C 128.511719 94.820312 124.902344 97.265625 120.445312 97.265625 C 115.996094 97.265625 112.386719 94.820312 112.386719 91.804688 L 128.511719 91.804688 "/>
<path style=" stroke:none;fill-rule:nonzero;fill:rgb(79.998779%,47.059631%,30.979919%);fill-opacity:1;" d="M 119.980469 85.796875 L 119.980469 68.710938 L 123.324219 81.980469 L 119.980469 85.796875 "/>
<path style=" stroke:none;fill-rule:nonzero;fill:rgb(64.709473%,22.749329%,23.139954%);fill-opacity:1;" d="M 111.921875 68.710938 C 111.921875 68.710938 109.644531 66.101562 107.167969 66.101562 C 103.988281 66.101562 102.949219 67.8125 102.949219 67.8125 L 102.691406 68.710938 C 102.691406 68.710938 104.761719 67.355469 106.726562 67.367188 C 110.632812 67.375 111.921875 68.710938 111.921875 68.710938 "/>
<path style=" stroke:none;fill-rule:nonzero;fill:rgb(15.689087%,8.628845%,9.799194%);fill-opacity:1;" d="M 106.375 73.648438 C 106.375 75.210938 107.234375 76.484375 108.292969 76.484375 C 109.359375 76.484375 110.21875 75.210938 110.21875 73.648438 C 110.21875 72.078125 109.359375 70.808594 108.292969 70.808594 C 107.234375 70.808594 106.375 72.078125 106.375 73.648438 "/>
<path style=" stroke:none;fill-rule:nonzero;fill:rgb(100%,100%,100%);fill-opacity:1;" d="M 106.726562 72.589844 C 106.726562 73.023438 107.078125 73.371094 107.511719 73.371094 C 107.945312 73.371094 108.292969 73.023438 108.292969 72.589844 C 108.292969 72.15625 107.945312 71.804688 107.511719 71.804688 C 107.078125 71.804688 106.726562 72.15625 106.726562 72.589844 "/>
<path style=" stroke:none;fill-rule:nonzero;fill:rgb(100%,100%,100%);fill-opacity:1;" d="M 108.109375 73.945312 C 108.109375 74.214844 108.324219 74.429688 108.59375 74.429688 C 108.859375 74.429688 109.082031 74.214844 109.082031 73.945312 C 109.082031 73.675781 108.859375 73.460938 108.59375 73.460938 C 108.324219 73.460938 108.109375 73.675781 108.109375 73.945312 "/>
<path style=" stroke:none;fill-rule:nonzero;fill:rgb(64.709473%,22.749329%,23.139954%);fill-opacity:1;" d="M 128.5 68.710938 C 128.5 68.710938 130.777344 66.101562 133.25 66.101562 C 136.433594 66.101562 137.464844 67.8125 137.464844 67.8125 L 137.730469 68.710938 C 137.730469 68.710938 135.660156 67.355469 133.691406 67.367188 C 129.792969 67.375 128.5 68.710938 128.5 68.710938 "/>
<path style=" stroke:none;fill-rule:nonzero;fill:rgb(15.689087%,8.628845%,9.799194%);fill-opacity:1;" d="M 134.046875 73.648438 C 134.046875 75.210938 133.1875 76.484375 132.125 76.484375 C 131.0625 76.484375 130.203125 75.210938 130.203125 73.648438 C 130.203125 72.078125 131.0625 70.808594 132.125 70.808594 C 133.1875 70.808594 134.046875 72.078125 134.046875 73.648438 "/>
<path style=" stroke:none;fill-rule:nonzero;fill:rgb(100%,100%,100%);fill-opacity:1;" d="M 133.691406 72.589844 C 133.691406 73.023438 133.34375 73.371094 132.90625 73.371094 C 132.476562 73.371094 132.125 73.023438 132.125 72.589844 C 132.125 72.15625 132.476562 71.804688 132.90625 71.804688 C 133.34375 71.804688 133.691406 72.15625 133.691406 72.589844 "/>
<path style=" stroke:none;fill-rule:nonzero;fill:rgb(100%,100%,100%);fill-opacity:1;" d="M 132.3125 73.945312 C 132.3125 74.214844 132.097656 74.429688 131.828125 74.429688 C 131.558594 74.429688 131.339844 74.214844 131.339844 73.945312 C 131.339844 73.675781 131.558594 73.460938 131.828125 73.460938 C 132.097656 73.460938 132.3125 73.675781 132.3125 73.945312 "/>
<path style=" stroke:none;fill-rule:nonzero;fill:rgb(10.978699%,12.159729%,16.859436%);fill-opacity:1;" d="M 130.8125 135.304688 L 137.941406 135.304688 L 139.796875 120.671875 L 129.765625 116.679688 C 129.765625 116.679688 131.53125 124.101562 130.8125 135.304688 "/>
<path style=" stroke:none;fill-rule:nonzero;fill:rgb(10.978699%,12.159729%,16.859436%);fill-opacity:1;" d="M 112.214844 135.304688 C 110.914062 124.03125 111.421875 116.484375 111.421875 116.484375 L 101.097656 121.253906 L 103.558594 135.304688 L 112.214844 135.304688 "/>
<path style=" stroke:none;fill-rule:nonzero;fill:rgb(100%,100%,100%);fill-opacity:1;" d="M 131.867188 121.554688 L 120.445312 121.554688 L 128.511719 113.78125 Z M 131.867188 121.554688 "/>
<path style=" stroke:none;fill-rule:nonzero;fill:rgb(100%,100%,100%);fill-opacity:1;" d="M 108.804688 121.554688 L 120.445312 121.554688 L 111.902344 114.5625 Z M 108.804688 121.554688 "/>
<path style=" stroke:none;fill-rule:nonzero;fill:rgb(14.898682%,16.468811%,23.139954%);fill-opacity:1;" d="M 95.625 135.304688 C 94.902344 129.917969 93.839844 125.050781 92.515625 122.816406 C 90.121094 123.890625 88.148438 128.574219 86.515625 135.304688 L 95.625 135.304688 "/>
<path style=" stroke:none;fill-rule:nonzero;fill:rgb(14.898682%,16.468811%,23.139954%);fill-opacity:1;" d="M 153.964844 135.304688 C 152.335938 128.574219 150.359375 123.894531 147.957031 122.820312 C 146.640625 125.054688 145.496094 129.917969 144.667969 135.304688 L 153.964844 135.304688 "/>
<path style=" stroke:none;fill-rule:nonzero;fill:rgb(96.469116%,60.778809%,44.309998%);fill-opacity:1;" d="M 133.332031 85.929688 C 129.808594 85.929688 126.949219 84.160156 126.949219 81.980469 C 126.949219 79.796875 129.808594 78.027344 133.332031 78.027344 C 136.855469 78.027344 139.707031 79.796875 139.707031 81.980469 C 139.707031 84.160156 136.855469 85.929688 133.332031 85.929688 "/>
<path style=" stroke:none;fill-rule:nonzero;fill:rgb(96.469116%,60.778809%,44.309998%);fill-opacity:1;" d="M 109.082031 85.929688 C 105.554688 85.929688 102.703125 84.160156 102.703125 81.980469 C 102.703125 79.796875 105.554688 78.027344 109.082031 78.027344 C 112.601562 78.027344 115.457031 79.796875 115.457031 81.980469 C 115.457031 84.160156 112.601562 85.929688 109.082031 85.929688 "/>
<path style=" stroke:none;fill-rule:nonzero;fill:rgb(95.689392%,95.689392%,95.689392%);fill-opacity:1;" d="M 150.667969 315.835938 C 150.667969 330.246094 138.984375 341.929688 124.566406 341.929688 C 110.152344 341.929688 98.472656 330.246094 98.472656 315.835938 C 98.472656 301.417969 110.152344 289.734375 124.566406 289.734375 C 138.984375 289.734375 150.667969 301.417969 150.667969 315.835938 "/>
<path style=" stroke:none;fill-rule:nonzero;fill:rgb(48.239136%,47.44873%,47.44873%);fill-opacity:1;" d="M 316.101562 353.925781 L 191.679688 353.925781 L 191.679688 262.585938 L 190.320312 262.585938 L 190.316406 355.28125 L 316.101562 355.28125 L 316.101562 353.925781 "/>
<path style=" stroke:none;fill-rule:nonzero;fill:rgb(48.239136%,47.44873%,47.44873%);fill-opacity:1;" d="M 207.085938 354.601562 L 208.445312 354.601562 L 208.445312 262.585938 L 207.085938 262.585938 Z M 207.085938 354.601562 "/>
<path style=" stroke:none;fill-rule:nonzero;fill:rgb(48.239136%,47.44873%,47.44873%);fill-opacity:1;" d="M 223.863281 354.601562 L 225.222656 354.601562 L 225.222656 262.585938 L 223.863281 262.585938 Z M 223.863281 354.601562 "/>
<path style=" stroke:none;fill-rule:nonzero;fill:rgb(48.239136%,47.44873%,47.44873%);fill-opacity:1;" d="M 240.636719 354.601562 L 241.996094 354.601562 L 241.996094 262.585938 L 240.636719 262.585938 Z M 240.636719 354.601562 "/>
<path style=" stroke:none;fill-rule:nonzero;fill:rgb(48.239136%,47.44873%,47.44873%);fill-opacity:1;" d="M 257.402344 354.601562 L 258.761719 354.601562 L 258.761719 262.585938 L 257.402344 262.585938 Z M 257.402344 354.601562 "/>
<path style=" stroke:none;fill-rule:nonzero;fill:rgb(48.239136%,47.44873%,47.44873%);fill-opacity:1;" d="M 274.175781 354.601562 L 275.535156 354.601562 L 275.535156 262.585938 L 274.175781 262.585938 Z M 274.175781 354.601562 "/>
<path style=" stroke:none;fill-rule:nonzero;fill:rgb(48.239136%,47.44873%,47.44873%);fill-opacity:1;" d="M 290.945312 354.601562 L 292.308594 354.601562 L 292.308594 262.585938 L 290.945312 262.585938 Z M 290.945312 354.601562 "/>
<path style=" stroke:none;fill-rule:nonzero;fill:rgb(48.239136%,47.44873%,47.44873%);fill-opacity:1;" d="M 307.714844 354.601562 L 309.074219 354.601562 L 309.074219 262.585938 L 307.714844 262.585938 Z M 307.714844 354.601562 "/>
<path style=" stroke:none;fill-rule:nonzero;fill:rgb(48.239136%,47.44873%,47.44873%);fill-opacity:1;" d="M 191 342.132812 L 316.101562 342.132812 L 316.101562 340.773438 L 191 340.773438 Z M 191 342.132812 "/>
<path style=" stroke:none;fill-rule:nonzero;fill:rgb(48.239136%,47.44873%,47.44873%);fill-opacity:1;" d="M 191 325.816406 L 316.101562 325.816406 L 316.101562 324.457031 L 191 324.457031 Z M 191 325.816406 "/>
<path style=" stroke:none;fill-rule:nonzero;fill:rgb(48.239136%,47.44873%,47.44873%);fill-opacity:1;" d="M 191 309.492188 L 316.101562 309.492188 L 316.101562 308.136719 L 191 308.136719 Z M 191 309.492188 "/>
<path style=" stroke:none;fill-rule:nonzero;fill:rgb(48.239136%,47.44873%,47.44873%);fill-opacity:1;" d="M 191 293.175781 L 316.101562 293.175781 L 316.101562 291.816406 L 191 291.816406 Z M 191 293.175781 "/>
<path style=" stroke:none;fill-rule:nonzero;fill:rgb(48.239136%,47.44873%,47.44873%);fill-opacity:1;" d="M 191 276.859375 L 316.101562 276.859375 L 316.101562 275.5 L 191 275.5 Z M 191 276.859375 "/>
<path style=" stroke:none;fill-rule:nonzero;fill:rgb(70.588684%,12.548828%,14.898682%);fill-opacity:1;" d="M 191.601562 341.761719 L 207.953125 309.945312 L 224.753906 326.292969 L 239.957031 293.609375 L 258.285156 309.675781 L 274.726562 277.910156 L 291.503906 326.871094 L 309.003906 292.808594 L 307.789062 292.1875 L 291.753906 323.40625 L 274.980469 274.453125 L 257.875 307.507812 L 239.488281 291.390625 L 224.332031 323.980469 L 207.582031 307.683594 L 190.394531 341.140625 L 191.601562 341.761719 "/>
<path style=" stroke:none;fill-rule:nonzero;fill:rgb(70.588684%,12.548828%,14.898682%);fill-opacity:1;" d="M 210.53125 308.816406 C 210.53125 310.339844 209.296875 311.582031 207.765625 311.582031 C 206.238281 311.582031 205.003906 310.339844 205.003906 308.816406 C 205.003906 307.292969 206.238281 306.050781 207.765625 306.050781 C 209.296875 306.050781 210.53125 307.292969 210.53125 308.816406 "/>
<path style=" stroke:none;fill-rule:nonzero;fill:rgb(70.588684%,12.548828%,14.898682%);fill-opacity:1;" d="M 227.300781 325.136719 C 227.300781 326.664062 226.066406 327.902344 224.542969 327.902344 C 223.015625 327.902344 221.777344 326.664062 221.777344 325.136719 C 221.777344 323.609375 223.015625 322.375 224.542969 322.375 C 226.066406 322.375 227.300781 323.609375 227.300781 325.136719 "/>
<path style=" stroke:none;fill-rule:nonzero;fill:rgb(70.588684%,12.548828%,14.898682%);fill-opacity:1;" d="M 242.488281 292.496094 C 242.488281 294.027344 241.253906 295.265625 239.722656 295.265625 C 238.199219 295.265625 236.960938 294.027344 236.960938 292.496094 C 236.960938 290.976562 238.199219 289.734375 239.722656 289.734375 C 241.253906 289.734375 242.488281 290.976562 242.488281 292.496094 "/>
<path style=" stroke:none;fill-rule:nonzero;fill:rgb(70.588684%,12.548828%,14.898682%);fill-opacity:1;" d="M 260.847656 308.589844 C 260.847656 310.121094 259.609375 311.351562 258.082031 311.351562 C 256.558594 311.351562 255.324219 310.121094 255.324219 308.589844 C 255.324219 307.066406 256.558594 305.828125 258.082031 305.828125 C 259.609375 305.828125 260.847656 307.066406 260.847656 308.589844 "/>
<path style=" stroke:none;fill-rule:nonzero;fill:rgb(70.588684%,12.548828%,14.898682%);fill-opacity:1;" d="M 277.621094 276.179688 C 277.621094 277.710938 276.382812 278.945312 274.855469 278.945312 C 273.328125 278.945312 272.09375 277.710938 272.09375 276.179688 C 272.09375 274.65625 273.328125 273.417969 274.855469 273.417969 C 276.382812 273.417969 277.621094 274.65625 277.621094 276.179688 "/>
<path style=" stroke:none;fill-rule:nonzero;fill:rgb(70.588684%,12.548828%,14.898682%);fill-opacity:1;" d="M 294.394531 325.136719 C 294.394531 326.664062 293.152344 327.902344 291.628906 327.902344 C 290.101562 327.902344 288.863281 326.664062 288.863281 325.136719 C 288.863281 323.609375 290.101562 322.375 291.628906 322.375 C 293.152344 322.375 294.394531 323.609375 294.394531 325.136719 "/>
<path style=" stroke:none;fill-rule:nonzero;fill:rgb(70.588684%,12.548828%,14.898682%);fill-opacity:1;" d="M 311.164062 292.496094 C 311.164062 294.027344 309.925781 295.265625 308.398438 295.265625 C 306.871094 295.265625 305.636719 294.027344 305.636719 292.496094 C 305.636719 290.976562 306.871094 289.734375 308.398438 289.734375 C 309.925781 289.734375 311.164062 290.976562 311.164062 292.496094 "/>
<path style=" stroke:none;fill-rule:nonzero;fill:rgb(13.729858%,13.328552%,13.729858%);fill-opacity:1;" d="M 86.339844 98.023438 C 86.339844 98.023438 89.117188 109.050781 93.960938 112.332031 L 96.964844 106.457031 L 89.398438 95.457031 L 86.339844 98.023438 "/>
<path style=" stroke:none;fill-rule:nonzero;fill:rgb(92.158508%,60.389709%,36.079407%);fill-opacity:1;" d="M 85.097656 79.050781 C 85.097656 79.050781 73.53125 70.988281 75.0625 86.414062 C 75.996094 95.851562 86.414062 104.785156 88.976562 98.734375 C 88.976562 98.734375 90.242188 91.957031 85.097656 79.050781 "/>
<path style=" stroke:none;fill-rule:nonzero;fill:rgb(84.309387%,50.979614%,33.329773%);fill-opacity:1;" d="M 86.222656 100.707031 C 82.175781 100.707031 75.78125 93.710938 75.0625 86.414062 C 74.964844 85.460938 74.921875 84.597656 74.921875 83.816406 C 74.917969 78.417969 77.027344 76.945312 79.328125 76.945312 C 80.234375 76.945312 81.171875 77.175781 82.019531 77.480469 C 82.019531 77.484375 82.019531 77.488281 82.019531 77.492188 C 82.019531 77.492188 85.09375 79.167969 86.304688 82.289062 C 86.347656 82.414062 86.390625 82.539062 86.429688 82.660156 C 86.523438 84.183594 86.625 85.660156 86.75 87.089844 C 84.390625 82.519531 82.351562 81.0625 80.707031 81.0625 C 77.800781 81.0625 76.128906 85.621094 76.128906 85.621094 C 78.082031 84.117188 79.464844 83.605469 80.4375 83.605469 C 82.550781 83.605469 82.753906 86.027344 82.753906 86.027344 C 81.5625 89.199219 85.464844 91.5625 85.464844 91.5625 C 85.324219 92.929688 84.109375 95.339844 84.109375 95.339844 C 85.71875 94.867188 86.847656 93.804688 87.433594 93.125 C 87.761719 95.335938 88.164062 97.40625 88.671875 99.328125 C 88.261719 99.988281 87.722656 100.398438 87.097656 100.582031 C 86.824219 100.667969 86.53125 100.707031 86.222656 100.707031 "/>
<path style=" stroke:none;fill-rule:nonzero;fill:rgb(68.629456%,36.859131%,25.878906%);fill-opacity:1;" d="M 84.109375 95.339844 C 84.109375 95.339844 85.324219 92.929688 85.464844 91.5625 C 85.464844 91.5625 81.5625 89.199219 82.753906 86.027344 C 82.753906 86.027344 82.550781 83.605469 80.4375 83.605469 C 79.464844 83.605469 78.082031 84.117188 76.128906 85.621094 C 76.128906 85.621094 77.800781 81.0625 80.707031 81.0625 C 82.351562 81.0625 84.390625 82.519531 86.75 87.089844 C 86.929688 89.207031 87.152344 91.21875 87.433594 93.125 C 86.847656 93.804688 85.71875 94.867188 84.109375 95.339844 "/>
<path style=" stroke:none;fill-rule:nonzero;fill:rgb(92.158508%,55.288696%,31.369019%);fill-opacity:1;" d="M 143.574219 78.265625 C 143.574219 78.265625 153.113281 70.121094 153.101562 83.914062 C 153.097656 92.347656 144.648438 101.160156 141.855469 96.027344 C 141.855469 96.027344 140.148438 90.140625 143.574219 78.265625 "/>
<path style=" stroke:none;fill-rule:nonzero;fill:rgb(95.289612%,39.99939%,29.798889%);fill-opacity:1;" d="M 151.277344 83.308594 C 151.277344 83.308594 146.609375 73.621094 141.898438 85.816406 L 141.449219 90.433594 C 141.449219 90.433594 142.808594 92.179688 145.058594 92.609375 C 145.058594 92.609375 143.777344 90.582031 143.53125 89.378906 C 143.53125 89.378906 146.78125 86.953125 145.445312 84.25 C 145.445312 84.25 145.382812 79.632812 151.277344 83.308594 "/>
<path style=" stroke:none;fill-rule:nonzero;fill:rgb(13.729858%,13.328552%,13.729858%);fill-opacity:1;" d="M 145.585938 42.933594 C 145.585938 42.933594 154.179688 51.242188 153.625 60.777344 C 153.625 60.777344 151.902344 74.210938 150.230469 79.480469 L 148.882812 83.449219 L 140.871094 50.425781 L 145.585938 42.933594 "/>
<path style=" stroke:none;fill-rule:nonzero;fill:rgb(6.669617%,6.669617%,7.058716%);fill-opacity:1;" d="M 146.695312 46.816406 L 141.0625 51.21875 L 148.53125 82.007812 L 148.539062 82.03125 C 152.75 72.726562 146.695312 46.816406 146.695312 46.816406 "/>
<path style=" stroke:none;fill-rule:nonzero;fill:rgb(92.158508%,60.389709%,36.079407%);fill-opacity:1;" d="M 149.367188 72.074219 C 149.367188 72.074219 150.644531 123.839844 122.738281 127.753906 C 122.738281 127.753906 103.847656 130.085938 91.160156 105.9375 C 87.054688 98.125 86.445312 86.527344 85.960938 71.519531 C 85.960938 71.519531 91.707031 38.292969 120.019531 39.117188 C 120.019531 39.117188 145.578125 36.824219 149.367188 72.074219 "/>
<path style=" stroke:none;fill-rule:nonzero;fill:rgb(89.408875%,75.289917%,73.329163%);fill-opacity:1;" d="M 121.359375 127.816406 C 121.34375 127.816406 121.332031 127.816406 121.316406 127.816406 C 121.332031 127.816406 121.34375 127.816406 121.359375 127.816406 M 121.359375 127.816406 C 122.242188 127.816406 122.738281 127.753906 122.738281 127.753906 C 122.738281 127.753906 122.242188 127.816406 121.359375 127.816406 "/>
<path style=" stroke:none;fill-rule:nonzero;fill:rgb(84.309387%,50.979614%,33.329773%);fill-opacity:1;" d="M 121.359375 127.816406 C 121.34375 127.816406 121.332031 127.816406 121.316406 127.816406 C 116.714844 127.804688 101.894531 126.128906 91.304688 106.207031 C 91.300781 106.199219 91.296875 106.195312 91.292969 106.191406 C 91.285156 106.175781 91.277344 106.160156 91.269531 106.144531 C 91.261719 106.128906 91.25 106.109375 91.242188 106.089844 C 91.238281 106.085938 91.234375 106.082031 91.234375 106.074219 C 91.230469 106.070312 91.222656 106.058594 91.222656 106.050781 C 91.207031 106.027344 91.195312 106.003906 91.183594 105.976562 C 91.175781 105.964844 91.167969 105.949219 91.160156 105.9375 C 88.136719 100.179688 87.011719 92.363281 86.433594 82.648438 C 86.460938 82.730469 86.484375 82.816406 86.511719 82.898438 L 88.476562 88.730469 L 91.503906 85.820312 C 91.503906 85.820312 91.542969 84.992188 91.632812 83.675781 C 92.246094 85.386719 93.28125 89.425781 96.566406 100.707031 C 101.441406 117.449219 116 124.859375 123.460938 127.628906 C 123.21875 127.671875 122.980469 127.71875 122.738281 127.753906 C 122.738281 127.753906 122.242188 127.816406 121.359375 127.816406 "/>
<path style=" stroke:none;fill-rule:nonzero;fill:rgb(84.309387%,50.979614%,33.329773%);fill-opacity:1;" d="M 149.363281 74.742188 C 147.945312 68.675781 142.472656 56.292969 142.472656 56.292969 C 140.285156 57.882812 130.261719 60.558594 130.261719 60.558594 C 130.066406 60.574219 129.855469 60.582031 129.632812 60.582031 C 128.996094 60.582031 128.25 60.515625 127.433594 60.402344 C 132.40625 59.359375 137.3125 57.617188 141.449219 54.800781 C 141.449219 54.800781 142.355469 54.03125 143.5625 52.6875 C 146.3125 57.367188 148.460938 63.648438 149.367188 72.074219 C 149.367188 72.074219 149.390625 73.054688 149.363281 74.742188 M 94.480469 67.191406 C 95.082031 65.84375 96.859375 61.710938 97.457031 58.515625 C 97.457031 58.515625 99.644531 58.652344 102.703125 58.652344 C 104.234375 58.652344 105.980469 58.617188 107.78125 58.515625 C 107.320312 58.851562 106.839844 59.199219 106.34375 59.546875 C 103.785156 60.117188 101.003906 60.660156 99.273438 60.777344 C 99.273438 60.777344 100.953125 61.074219 103.722656 61.347656 C 100.351562 63.597656 96.785156 65.796875 94.480469 67.191406 "/>
<g clip-path="url(#clip2)" clip-rule="nonzero">
<path style=" stroke:none;fill-rule:nonzero;fill:rgb(13.729858%,13.328552%,13.729858%);fill-opacity:1;" d="M 82.019531 77.492188 C 82.019531 77.492188 85.492188 79.386719 86.511719 82.898438 L 88.476562 88.730469 L 91.503906 85.820312 C 91.503906 85.820312 92.0625 73.183594 94.277344 67.632812 C 94.277344 67.632812 96.734375 62.386719 97.457031 58.515625 C 97.457031 58.515625 105.585938 59.019531 112.425781 58.082031 C 112.425781 58.082031 103.179688 60.507812 99.273438 60.777344 C 99.273438 60.777344 125.832031 65.429688 141.449219 54.800781 C 141.449219 54.800781 156.976562 41.65625 145.050781 28.613281 C 145.050781 28.613281 141.683594 27.207031 139.804688 25.328125 C 139.804688 25.328125 124.214844 31.734375 120.6875 32.394531 C 116.476562 33.183594 86.304688 39.320312 78.808594 34.632812 C 78.808594 34.632812 82.402344 37.445312 84.277344 37.601562 C 84.277344 37.601562 78.496094 39.789062 72.40625 37.601562 C 72.40625 37.601562 78.820312 41.820312 82.019531 41.820312 C 82.019531 41.820312 75.683594 45.417969 73.03125 45.105469 C 73.03125 45.105469 77.5625 47.277344 79.277344 46.816406 C 79.277344 46.816406 76.414062 53.078125 76.128906 55.113281 C 76.128906 55.113281 82.019531 72.882812 82.019531 77.492188 "/>
</g>
<path style=" stroke:none;fill-rule:nonzero;fill:rgb(6.669617%,6.669617%,7.058716%);fill-opacity:1;" d="M 98.957031 58.582031 C 95.828125 58.515625 82.019531 54.640625 82.019531 54.640625 C 84.136719 56.675781 91.992188 60.277344 91.992188 60.277344 C 90.898438 64.34375 84.277344 72.882812 84.277344 72.882812 C 83.609375 71.707031 80.265625 65.160156 77.765625 60.246094 C 79.507812 65.867188 82.019531 74.480469 82.019531 77.492188 C 82.019531 77.492188 85.492188 79.386719 86.511719 82.898438 L 88.476562 88.730469 L 91.503906 85.820312 C 91.503906 85.820312 92.0625 73.183594 94.277344 67.632812 C 94.277344 67.632812 96.734375 62.386719 97.457031 58.515625 C 97.457031 58.515625 98.019531 58.546875 98.957031 58.582031 "/>
<path style=" stroke:none;fill-rule:nonzero;fill:rgb(27.449036%,13.328552%,10.978699%);fill-opacity:1;" d="M 102.851562 75.042969 C 102.851562 75.042969 112.964844 71.535156 119.277344 74.707031 C 119.277344 74.707031 112.609375 65.523438 102.851562 75.042969 "/>
<path style=" stroke:none;fill-rule:nonzero;fill:rgb(27.449036%,13.328552%,10.978699%);fill-opacity:1;" d="M 133.277344 74.980469 C 133.277344 74.980469 141.527344 71.515625 146.695312 74.707031 C 146.695312 74.707031 141.214844 65.496094 133.277344 74.980469 "/>
<path style=" stroke:none;fill-rule:nonzero;fill:rgb(67.83905%,30.589294%,26.269531%);fill-opacity:1;" d="M 133.378906 94.402344 C 133.378906 94.402344 133.585938 94.585938 133.875 94.980469 C 134.160156 95.375 134.546875 95.976562 134.78125 96.828125 C 134.894531 97.253906 134.964844 97.746094 134.914062 98.285156 C 134.863281 98.816406 134.675781 99.398438 134.339844 99.902344 C 134.003906 100.410156 133.539062 100.832031 133.027344 101.148438 C 132.519531 101.46875 131.964844 101.695312 131.414062 101.878906 C 131.132812 101.957031 130.855469 102.039062 130.574219 102.097656 L 130.160156 102.183594 L 130.054688 102.203125 L 130.027344 102.207031 L 129.910156 102.222656 L 129.699219 102.238281 C 129.140625 102.285156 128.597656 102.289062 128.066406 102.265625 C 127.011719 102.207031 126.003906 102.027344 125.199219 101.636719 C 124.792969 101.445312 124.449219 101.191406 124.203125 100.90625 C 123.953125 100.621094 123.832031 100.304688 123.78125 100.050781 C 123.761719 99.921875 123.746094 99.8125 123.753906 99.710938 C 123.757812 99.613281 123.761719 99.535156 123.777344 99.46875 C 123.800781 99.339844 123.816406 99.273438 123.816406 99.273438 C 123.816406 99.273438 123.832031 99.339844 123.859375 99.464844 C 123.867188 99.527344 123.890625 99.601562 123.921875 99.6875 C 123.945312 99.773438 123.992188 99.863281 124.042969 99.960938 C 124.152344 100.152344 124.324219 100.351562 124.5625 100.511719 C 124.804688 100.671875 125.117188 100.792969 125.476562 100.878906 C 126.195312 101.050781 127.101562 101.078125 128.070312 101.027344 C 128.554688 101.003906 129.058594 100.957031 129.5625 100.894531 L 129.746094 100.871094 L 129.789062 100.863281 L 129.800781 100.863281 L 129.804688 100.859375 C 129.800781 100.863281 129.804688 100.863281 129.808594 100.859375 C 129.816406 100.859375 129.820312 100.859375 129.777344 100.867188 L 129.800781 100.859375 L 129.894531 100.839844 L 130.265625 100.753906 C 130.515625 100.699219 130.75 100.621094 130.996094 100.554688 C 131.46875 100.402344 131.921875 100.214844 132.328125 99.992188 C 132.734375 99.765625 133.082031 99.492188 133.347656 99.175781 C 133.605469 98.859375 133.785156 98.496094 133.882812 98.113281 C 133.984375 97.730469 134.007812 97.332031 133.992188 96.960938 C 133.953125 96.203125 133.769531 95.554688 133.632812 95.105469 C 133.488281 94.65625 133.378906 94.402344 133.378906 94.402344 "/>
<path style=" stroke:none;fill-rule:nonzero;fill:rgb(76.858521%,41.569519%,30.589294%);fill-opacity:1;" d="M 127.257812 101.050781 C 126.597656 101.050781 125.988281 101 125.476562 100.878906 C 125.117188 100.792969 124.804688 100.671875 124.5625 100.511719 C 124.324219 100.351562 124.152344 100.152344 124.042969 99.960938 C 123.992188 99.863281 123.945312 99.773438 123.921875 99.6875 C 123.890625 99.601562 123.867188 99.527344 123.859375 99.464844 C 123.832031 99.339844 123.816406 99.273438 123.816406 99.273438 C 123.816406 99.273438 123.800781 99.339844 123.777344 99.46875 C 123.761719 99.535156 123.757812 99.613281 123.753906 99.710938 C 123.753906 99.726562 123.753906 99.738281 123.753906 99.753906 C 123.519531 98.875 123.8125 98.023438 123.8125 98.023438 C 126.101562 99.261719 127.949219 99.699219 129.421875 99.699219 C 131.921875 99.699219 133.332031 98.425781 133.972656 97.621094 C 133.957031 97.789062 133.925781 97.953125 133.882812 98.113281 C 133.785156 98.496094 133.605469 98.859375 133.347656 99.175781 C 133.082031 99.492188 132.734375 99.765625 132.328125 99.992188 C 131.921875 100.214844 131.46875 100.402344 130.996094 100.554688 C 130.75 100.621094 130.515625 100.699219 130.265625 100.753906 L 129.894531 100.839844 L 129.800781 100.859375 L 129.78125 100.867188 L 129.746094 100.871094 L 129.5625 100.894531 C 129.058594 100.957031 128.554688 101.003906 128.070312 101.027344 C 127.792969 101.042969 127.519531 101.050781 127.257812 101.050781 M 129.800781 100.863281 L 129.800781 100.863281 "/>
<path style=" stroke:none;fill-rule:nonzero;fill:rgb(67.83905%,30.589294%,26.269531%);fill-opacity:1;" d="M 127.335938 101.675781 C 124.863281 101.675781 124.003906 100.695312 123.753906 99.753906 C 123.753906 99.738281 123.753906 99.726562 123.753906 99.710938 C 123.757812 99.613281 123.761719 99.535156 123.777344 99.46875 C 123.800781 99.339844 123.816406 99.273438 123.816406 99.273438 C 123.816406 99.273438 123.832031 99.339844 123.859375 99.464844 C 123.867188 99.527344 123.890625 99.601562 123.921875 99.6875 C 123.945312 99.773438 123.992188 99.863281 124.042969 99.960938 C 124.152344 100.152344 124.324219 100.351562 124.5625 100.511719 C 124.804688 100.671875 125.117188 100.792969 125.476562 100.878906 C 125.988281 101 126.597656 101.050781 127.257812 101.050781 C 127.519531 101.050781 127.792969 101.042969 128.070312 101.027344 C 128.554688 101.003906 129.058594 100.957031 129.5625 100.894531 L 129.746094 100.871094 L 129.78125 100.867188 L 129.800781 100.859375 L 129.894531 100.839844 L 130.265625 100.753906 C 130.515625 100.699219 130.75 100.621094 130.996094 100.554688 C 131.46875 100.402344 131.921875 100.214844 132.328125 99.992188 C 132.734375 99.765625 133.082031 99.492188 133.347656 99.175781 C 133.605469 98.859375 133.785156 98.496094 133.882812 98.113281 C 133.925781 97.953125 133.957031 97.789062 133.972656 97.621094 C 134.269531 97.253906 134.398438 96.984375 134.398438 96.984375 C 135.285156 101.4375 129.414062 101.648438 128.289062 101.648438 C 128.171875 101.648438 128.105469 101.644531 128.105469 101.644531 C 127.832031 101.664062 127.578125 101.675781 127.335938 101.675781 M 129.800781 100.863281 L 129.800781 100.863281 "/>
<path style=" stroke:none;fill-rule:nonzero;fill:rgb(76.858521%,41.569519%,30.589294%);fill-opacity:1;" d="M 125.988281 115.070312 C 123.152344 115.070312 121.320312 111.664062 121.320312 111.664062 C 122.179688 112.46875 124.542969 112.664062 126.625 112.664062 C 128.566406 112.664062 130.261719 112.496094 130.261719 112.496094 C 128.6875 114.40625 127.242188 115.070312 125.988281 115.070312 "/>
<path style=" stroke:none;fill-rule:nonzero;fill:rgb(92.158508%,68.238831%,48.239136%);fill-opacity:1;" d="M 132.984375 123.449219 C 140.667969 113.367188 147.800781 89.894531 148.347656 88.292969 C 146.777344 100.316406 142.832031 115.875 132.984375 123.449219 "/>
<path style=" stroke:none;fill-rule:nonzero;fill:rgb(100%,100%,100%);fill-opacity:1;" d="M 108.535156 78.648438 C 105.183594 82.292969 106.769531 86.53125 109.039062 87.925781 C 111.3125 89.324219 116.257812 87.925781 116.257812 87.925781 C 116.257812 87.925781 117.511719 78.03125 115.046875 77.066406 C 115.046875 77.066406 110.984375 75.996094 108.535156 78.648438 "/>
<path style=" stroke:none;fill-rule:nonzero;fill:rgb(64.709473%,83.139038%,87.449646%);fill-opacity:1;" d="M 116.273438 79.167969 C 116.046875 78.105469 115.664062 77.308594 115.046875 77.066406 C 115.046875 77.066406 110.984375 75.996094 108.535156 78.648438 C 107.015625 80.300781 106.542969 82.066406 106.660156 83.640625 C 108.023438 81.632812 111.398438 77.71875 116.273438 79.167969 "/>
<path style=" stroke:none;fill-rule:nonzero;fill:rgb(27.449036%,13.328552%,10.978699%);fill-opacity:1;" d="M 106.628906 81.90625 C 106.628906 81.90625 111.324219 75.054688 118.761719 78.03125 C 118.761719 78.03125 108.269531 70.964844 106.628906 81.90625 "/>
<path style=" stroke:none;fill-rule:nonzero;fill:rgb(30.198669%,12.548828%,9.01947%);fill-opacity:1;" d="M 113.507812 84.746094 C 113.507812 86.503906 112.082031 87.925781 110.328125 87.925781 C 108.574219 87.925781 107.152344 86.503906 107.152344 84.746094 C 107.152344 82.992188 108.574219 81.566406 110.328125 81.566406 C 112.082031 81.566406 113.507812 82.992188 113.507812 84.746094 "/>
<path style=" stroke:none;fill-rule:nonzero;fill:rgb(12.159729%,7.449341%,7.058716%);fill-opacity:1;" d="M 112.042969 84.746094 C 112.042969 85.695312 111.273438 86.460938 110.328125 86.460938 C 109.382812 86.460938 108.617188 85.695312 108.617188 84.746094 C 108.617188 83.800781 109.382812 83.03125 110.328125 83.03125 C 111.273438 83.03125 112.042969 83.800781 112.042969 84.746094 "/>
<path style=" stroke:none;fill-rule:nonzero;fill:rgb(100%,100%,100%);fill-opacity:1;" d="M 112.425781 83.308594 C 112.425781 83.835938 112 84.265625 111.46875 84.265625 C 110.9375 84.265625 110.511719 83.835938 110.511719 83.308594 C 110.511719 82.777344 110.9375 82.347656 111.46875 82.347656 C 112 82.347656 112.425781 82.777344 112.425781 83.308594 "/>
<path style=" stroke:none;fill-rule:nonzero;fill:rgb(100%,100%,100%);fill-opacity:1;" d="M 135.039062 78.496094 C 132.613281 81.972656 133.757812 86.023438 135.402344 87.359375 C 137.046875 88.691406 140.621094 87.359375 140.621094 87.359375 C 140.621094 87.359375 141.527344 77.90625 139.746094 76.984375 C 139.746094 76.984375 136.804688 75.960938 135.039062 78.496094 "/>
<path style=" stroke:none;fill-rule:nonzero;fill:rgb(64.709473%,83.139038%,87.449646%);fill-opacity:1;" d="M 140.652344 79.136719 C 140.488281 78.054688 140.210938 77.226562 139.746094 76.984375 C 139.746094 76.984375 137.777344 76.328125 136.09375 77.472656 L 134.960938 78.636719 C 134.902344 78.726562 134.859375 78.820312 134.804688 78.910156 L 134.101562 80.375 C 133.945312 80.824219 133.832031 81.265625 133.765625 81.703125 C 135.003906 80.835938 138.5625 78.535156 140.652344 79.136719 "/>
<path style=" stroke:none;fill-rule:nonzero;fill:rgb(27.449036%,13.328552%,10.978699%);fill-opacity:1;" d="M 133.660156 81.605469 C 133.660156 81.605469 137.054688 75.0625 142.425781 77.90625 C 142.425781 77.90625 134.84375 71.15625 133.660156 81.605469 "/>
<path style=" stroke:none;fill-rule:nonzero;fill:rgb(30.198669%,12.548828%,9.01947%);fill-opacity:1;" d="M 138.628906 84.320312 C 138.628906 85.996094 137.601562 87.359375 136.332031 87.359375 C 135.0625 87.359375 134.035156 85.996094 134.035156 84.320312 C 134.035156 82.640625 135.0625 81.28125 136.332031 81.28125 C 137.601562 81.28125 138.628906 82.640625 138.628906 84.320312 "/>
<path style=" stroke:none;fill-rule:nonzero;fill:rgb(12.159729%,7.449341%,7.058716%);fill-opacity:1;" d="M 137.574219 84.320312 C 137.574219 85.222656 137.019531 85.957031 136.332031 85.957031 C 135.648438 85.957031 135.09375 85.222656 135.09375 84.320312 C 135.09375 83.414062 135.648438 82.679688 136.332031 82.679688 C 137.019531 82.679688 137.574219 83.414062 137.574219 84.320312 "/>
<path style=" stroke:none;fill-rule:nonzero;fill:rgb(100%,100%,100%);fill-opacity:1;" d="M 137.847656 82.945312 C 137.847656 83.449219 137.539062 83.859375 137.15625 83.859375 C 136.773438 83.859375 136.464844 83.449219 136.464844 82.945312 C 136.464844 82.4375 136.773438 82.03125 137.15625 82.03125 C 137.539062 82.03125 137.847656 82.4375 137.847656 82.945312 "/>
<path style=" stroke:none;fill-rule:nonzero;fill:rgb(58.428955%,8.628845%,20.388794%);fill-opacity:1;" d="M 146.605469 87.679688 C 146.09375 88.925781 145.003906 89.402344 145.003906 89.402344 C 138.296875 91.535156 133.460938 89.121094 133.460938 89.121094 C 130.425781 87.296875 131.261719 77.855469 131.261719 77.855469 C 139.757812 74.300781 147.464844 78.085938 147.464844 78.085938 C 148.070312 81.875 146.605469 87.679688 146.605469 87.679688 Z M 117.308594 89.730469 C 117.308594 89.730469 112.160156 92.144531 105.015625 90.011719 C 105.015625 90.011719 103.855469 89.535156 103.308594 88.292969 C 103.308594 88.292969 101.753906 82.484375 102.398438 78.695312 C 102.398438 78.695312 110.605469 74.910156 119.648438 78.464844 C 119.648438 78.464844 120.539062 87.90625 117.308594 89.730469 Z M 152.03125 77.660156 C 151.636719 77.234375 150.105469 77.015625 149.328125 76.929688 L 149.324219 76.882812 C 149.324219 76.882812 139.84375 72.230469 129.394531 76.597656 C 129.394531 76.597656 129.382812 76.738281 129.371094 76.941406 C 126.816406 76.183594 122.984375 76.808594 121.40625 77.128906 C 110.371094 72.910156 100.414062 77.492188 100.414062 77.492188 L 100.410156 77.539062 C 99.585938 77.625 97.953125 77.84375 97.535156 78.269531 C 97.535156 78.269531 97.511719 78.464844 97.488281 78.765625 L 82.019531 77.492188 L 84.613281 79.515625 L 97.457031 81.84375 C 97.476562 82.03125 97.5 82.207031 97.535156 82.363281 C 97.535156 82.363281 99.449219 83.320312 100.484375 83.757812 C 100.867188 86.777344 101.539062 89.296875 101.539062 89.296875 C 102.207031 90.828125 103.636719 91.417969 103.636719 91.417969 C 112.425781 94.039062 118.761719 91.070312 118.761719 91.070312 C 121.386719 89.585938 121.796875 84.03125 121.773438 80.417969 C 125.210938 79.691406 127.90625 79.871094 129.265625 80.066406 C 129.265625 83.683594 129.6875 89.015625 132.097656 90.460938 C 132.097656 90.460938 138.046875 93.433594 146.300781 90.804688 C 146.300781 90.804688 147.640625 90.222656 148.265625 88.6875 C 148.265625 88.6875 148.898438 86.167969 149.261719 83.144531 C 150.230469 82.710938 152.03125 81.753906 152.03125 81.753906 C 152.308594 80.398438 152.03125 77.660156 152.03125 77.660156 "/>
<path style=" stroke:none;fill-rule:nonzero;fill:rgb(27.449036%,13.328552%,10.978699%);fill-opacity:1;" d="M 131.566406 104.476562 C 131.566406 104.476562 131.507812 104.515625 131.390625 104.578125 C 131.277344 104.644531 131.109375 104.738281 130.882812 104.84375 C 130.660156 104.953125 130.386719 105.074219 130.066406 105.203125 C 129.746094 105.324219 129.378906 105.46875 128.96875 105.585938 C 128.765625 105.644531 128.554688 105.71875 128.332031 105.769531 C 128.109375 105.820312 127.878906 105.875 127.640625 105.929688 C 127.402344 105.992188 127.152344 106.023438 126.898438 106.070312 C 126.644531 106.109375 126.386719 106.15625 126.121094 106.179688 C 125.585938 106.21875 125.035156 106.304688 124.472656 106.28125 C 124.191406 106.28125 123.90625 106.28125 123.621094 106.28125 C 123.335938 106.261719 123.050781 106.238281 122.765625 106.21875 C 122.191406 106.183594 121.632812 106.066406 121.074219 105.972656 C 120.9375 105.945312 120.796875 105.921875 120.660156 105.898438 C 120.527344 105.859375 120.390625 105.820312 120.257812 105.78125 C 119.996094 105.707031 119.730469 105.632812 119.472656 105.558594 C 119.347656 105.519531 119.21875 105.484375 119.09375 105.445312 C 118.96875 105.398438 118.847656 105.351562 118.726562 105.300781 C 118.488281 105.203125 118.257812 105.105469 118.03125 105.015625 C 117.808594 104.914062 117.578125 104.847656 117.378906 104.726562 C 117.175781 104.613281 116.980469 104.507812 116.796875 104.40625 C 116.425781 104.191406 116.074219 104.023438 115.796875 103.8125 C 115.515625 103.617188 115.273438 103.433594 115.074219 103.285156 C 114.679688 102.992188 114.464844 102.816406 114.464844 102.816406 C 114.464844 102.816406 114.726562 102.925781 115.171875 103.125 C 115.394531 103.230469 115.664062 103.351562 115.96875 103.5 C 116.117188 103.578125 116.285156 103.640625 116.464844 103.703125 C 116.644531 103.769531 116.828125 103.839844 117.023438 103.914062 C 117.410156 104.0625 117.820312 104.234375 118.277344 104.359375 C 118.5 104.425781 118.734375 104.496094 118.96875 104.566406 C 119.085938 104.601562 119.207031 104.640625 119.324219 104.679688 C 119.449219 104.707031 119.574219 104.734375 119.695312 104.761719 C 119.949219 104.816406 120.199219 104.875 120.457031 104.933594 C 120.585938 104.960938 120.714844 104.992188 120.84375 105.019531 C 120.976562 105.039062 121.109375 105.058594 121.238281 105.082031 C 121.769531 105.160156 122.304688 105.261719 122.851562 105.285156 C 123.121094 105.308594 123.394531 105.335938 123.664062 105.363281 C 123.933594 105.367188 124.203125 105.371094 124.472656 105.378906 C 125.007812 105.402344 125.539062 105.371094 126.050781 105.359375 C 126.308594 105.355469 126.558594 105.316406 126.804688 105.304688 C 127.050781 105.285156 127.292969 105.277344 127.527344 105.242188 C 127.996094 105.179688 128.441406 105.136719 128.847656 105.0625 C 129.257812 105 129.628906 104.921875 129.964844 104.863281 C 130.292969 104.789062 130.585938 104.730469 130.820312 104.671875 C 131.058594 104.609375 131.246094 104.566406 131.371094 104.53125 C 131.5 104.496094 131.566406 104.476562 131.566406 104.476562 "/>
<g clip-path="url(#clip3)" clip-rule="nonzero">
<path style=" stroke:none;fill-rule:nonzero;fill:rgb(6.669617%,6.669617%,7.058716%);fill-opacity:1;" d="M 140.257812 25.730469 C 141.019531 27.53125 141.605469 30.875 140.871094 37.914062 C 139.511719 50.894531 120.6875 57.769531 120.6875 57.769531 C 123.824219 56.046875 125.789062 53.859375 125.789062 53.859375 C 121.214844 55.859375 116.40625 57.207031 112.136719 58.117188 C 112.234375 58.105469 112.328125 58.097656 112.425781 58.082031 C 112.425781 58.082031 103.179688 60.507812 99.273438 60.777344 C 99.273438 60.777344 125.832031 65.429688 141.449219 54.800781 C 141.449219 54.800781 156.976562 41.65625 145.050781 28.613281 C 145.050781 28.613281 142.175781 27.398438 140.257812 25.730469 "/>
</g>
<path style=" stroke:none;fill-rule:nonzero;fill:rgb(57.249451%,57.249451%,56.858826%);fill-opacity:1;" d="M 88.964844 36.378906 C 87.90625 36.378906 86.890625 36.351562 85.925781 36.292969 C 85.925781 36.292969 85.925781 36.292969 85.925781 36.289062 C 86.894531 36.347656 87.914062 36.378906 88.976562 36.378906 C 100.113281 36.378906 115.699219 33.351562 120.023438 32.519531 C 115.699219 33.351562 100.105469 36.378906 88.964844 36.378906 M 121.445312 32.214844 C 123.476562 31.671875 127.316406 30.253906 130.964844 28.847656 C 130.964844 28.847656 130.960938 28.847656 130.960938 28.847656 C 127.316406 30.257812 123.476562 31.671875 121.445312 32.214844 "/>
<path style=" stroke:none;fill-rule:nonzero;fill:rgb(24.308777%,24.308777%,24.308777%);fill-opacity:1;" d="M 93.648438 45.050781 C 88.746094 45.050781 85.574219 42.679688 85.925781 36.292969 C 86.890625 36.351562 87.90625 36.378906 88.964844 36.378906 C 100.105469 36.378906 115.699219 33.351562 120.023438 32.519531 C 120.285156 32.46875 120.507812 32.429688 120.6875 32.394531 C 120.898438 32.355469 121.152344 32.296875 121.445312 32.214844 C 123.476562 31.671875 127.316406 30.257812 130.960938 28.847656 C 122.003906 34.519531 103.980469 45.050781 93.648438 45.050781 "/>
<path style=" stroke:none;fill-rule:nonzero;fill:rgb(6.669617%,6.669617%,7.058716%);fill-opacity:1;" d="M 86.339844 49.953125 C 86.339844 49.953125 86.550781 50.015625 86.949219 50.113281 C 87.347656 50.21875 87.9375 50.347656 88.6875 50.5 C 89.433594 50.652344 90.351562 50.800781 91.402344 50.949219 C 92.449219 51.097656 93.640625 51.195312 94.9375 51.292969 C 95.589844 51.316406 96.261719 51.367188 96.960938 51.363281 C 97.3125 51.367188 97.664062 51.371094 98.027344 51.375 C 98.386719 51.367188 98.75 51.359375 99.121094 51.355469 C 100.605469 51.304688 102.160156 51.1875 103.757812 50.972656 C 104.15625 50.914062 104.5625 50.875 104.960938 50.800781 C 105.363281 50.726562 105.769531 50.652344 106.175781 50.578125 C 106.585938 50.511719 106.988281 50.40625 107.394531 50.3125 C 107.800781 50.214844 108.214844 50.140625 108.621094 50.027344 C 109.433594 49.792969 110.261719 49.597656 111.066406 49.316406 C 111.46875 49.183594 111.875 49.050781 112.28125 48.917969 L 113.480469 48.453125 C 115.082031 47.847656 116.621094 47.09375 118.117188 46.3125 C 118.5 46.128906 118.847656 45.894531 119.214844 45.691406 C 119.578125 45.480469 119.9375 45.273438 120.296875 45.066406 C 121 44.628906 121.679688 44.167969 122.355469 43.730469 C 123.015625 43.265625 123.640625 42.777344 124.277344 42.328125 C 124.601562 42.109375 124.886719 41.851562 125.1875 41.613281 C 125.480469 41.375 125.773438 41.136719 126.0625 40.902344 C 126.652344 40.445312 127.164062 39.9375 127.691406 39.472656 C 128.210938 39.003906 128.734375 38.566406 129.183594 38.09375 C 130.097656 37.171875 130.96875 36.34375 131.671875 35.542969 C 132.386719 34.757812 133.039062 34.089844 133.515625 33.492188 C 134.007812 32.90625 134.410156 32.453125 134.675781 32.136719 C 134.949219 31.828125 135.09375 31.660156 135.09375 31.660156 C 135.09375 31.660156 134.980469 31.847656 134.765625 32.203125 C 134.546875 32.550781 134.230469 33.070312 133.8125 33.71875 C 133.417969 34.382812 132.863281 35.136719 132.222656 36.003906 C 132.0625 36.21875 131.898438 36.445312 131.730469 36.675781 C 131.644531 36.792969 131.558594 36.910156 131.46875 37.027344 C 131.378906 37.140625 131.28125 37.257812 131.1875 37.375 C 130.796875 37.839844 130.390625 38.328125 129.960938 38.835938 C 129.546875 39.359375 129.054688 39.847656 128.566406 40.371094 C 128.070312 40.890625 127.566406 41.441406 126.992188 41.949219 C 126.710938 42.207031 126.425781 42.472656 126.136719 42.738281 C 125.84375 43 125.5625 43.285156 125.246094 43.53125 C 124.625 44.042969 123.984375 44.558594 123.320312 45.070312 C 122.636719 45.554688 121.945312 46.054688 121.234375 46.542969 C 120.5 46.996094 119.765625 47.476562 118.996094 47.90625 C 117.449219 48.757812 115.839844 49.554688 114.160156 50.199219 L 112.902344 50.675781 C 112.476562 50.8125 112.050781 50.949219 111.625 51.085938 L 110.988281 51.292969 C 110.773438 51.355469 110.554688 51.40625 110.339844 51.460938 C 109.910156 51.574219 109.480469 51.683594 109.054688 51.792969 C 107.332031 52.183594 105.613281 52.464844 103.941406 52.609375 C 103.109375 52.703125 102.285156 52.734375 101.476562 52.765625 C 101.078125 52.78125 100.675781 52.765625 100.285156 52.769531 C 99.890625 52.765625 99.503906 52.773438 99.121094 52.75 C 97.585938 52.714844 96.144531 52.542969 94.824219 52.363281 C 92.1875 51.964844 90.046875 51.367188 88.589844 50.859375 C 87.855469 50.613281 87.296875 50.375 86.914062 50.214844 C 86.535156 50.054688 86.339844 49.953125 86.339844 49.953125 "/>
</g>
</svg>
